<svg xmlns="http://www.w3.org/2000/svg" width="1242" height="381"><defs><linearGradient id="a" x1="0%" x2="0%" y1="179.188%" y2="5.145%"><stop offset="0%" stop-color="#EA053B"/><stop offset="100%" stop-color="#D0021B" stop-opacity="0"/></linearGradient><linearGradient id="b" x1="80.916%" x2="80.916%" y1="100%" y2="0%"><stop offset="0%" stop-color="#FF4343" stop-opacity="0"/><stop offset="100%" stop-color="#FF4343"/></linearGradient><linearGradient id="c" x1="50%" x2="50%" y1="0%" y2="100%"><stop offset="0%" stop-color="#F8E71C"/><stop offset="100%" stop-color="#F8E71C" stop-opacity="0"/></linearGradient><linearGradient id="d" x1="100%" x2="16.623%" y1="0%" y2="119.29%"><stop offset="0%" stop-color="#5180F5"/><stop offset="100%" stop-color="#60049F" stop-opacity="0"/></linearGradient><linearGradient id="e" x1="50%" x2="50%" y1="0%" y2="193.838%"><stop offset="0%" stop-color="#F5515F" stop-opacity="0"/><stop offset="100%" stop-color="#9F041B"/></linearGradient><linearGradient id="f" x1="50%" x2="50%" y1="0%" y2="100%"><stop offset="0%" stop-color="#C22A57"/><stop offset="100%" stop-color="#DD4867" stop-opacity="0"/></linearGradient><linearGradient id="g" x1="50%" x2="50%" y1="0%" y2="100%"><stop offset="0%" stop-color="#5FC6FF"/><stop offset="100%" stop-color="#3194FF"/></linearGradient></defs><g fill="none" fill-rule="evenodd"><path fill="url(#a)" d="M.836 335.549h133.03V.728H.836z" transform="translate(816 48)"/><path fill="#D0021B" d="M891.85 334.417v-5.943h7.744v5.943h-7.744zm0-238.652v-5.943h7.744v5.943h-7.744zm0 18.358v-5.943h7.744v5.943h-7.744zm0 18.358v-5.943h7.744v5.943h-7.744zm0 18.357v-5.943h7.744v5.943h-7.744zm0 18.358v-5.943h7.744v5.943h-7.744zm0 18.358v-5.943h7.744v5.943h-7.744zm0 18.358v-5.943h7.744v5.943h-7.744zm0 18.358v-5.943h7.744v5.943h-7.744zm0 18.358v-5.943h7.744v5.943h-7.744zm0 18.358v-5.943h7.744v5.943h-7.744zm0 18.358v-5.943h7.744v5.943h-7.744zm0 18.358v-5.943h7.744v5.943h-7.744zm0 18.358v-5.943h7.744v5.943h-7.744z" opacity=".479"/><path fill="url(#b)" d="M1156.488 213.887l-52.51-63.717v-32.287h-8.072V52.184h-7.162v65.7h-8.074v32.753l-52.19 63.25h-.196v168.662h128.352V213.887z"/><path fill="#7F8CFC" d="M.5 383.549h124.618V181.004H.5z"/><path fill="#5E6DEB" d="M.5 383.549h34.854V181.004H.5z"/><path fill="url(#c)" d="M125.118 34.529L71.326 83.52V48.996L125.118.004z" transform="translate(0 181)"/><path fill="url(#d)" d="M89.145 202.549v-55.766l-53.791 48.992v6.774z" transform="translate(0 181)"/><path fill="url(#e)" d="M.575 335.549h133.03V.728H.575z" transform="translate(195 48)"/><path fill="#65EBE7" d="M244.463 66.112v-4.6h20.041v4.6h-20.041zm0 9.339v-4.6h20.041v4.6h-20.041zm0 9.34v-4.6h20.041v4.6h-20.041zm0 9.34v-4.6h20.041v4.6h-20.041zm0 9.339v-4.6h20.041v4.6h-20.041zm0 9.339v-4.6h20.041v4.6h-20.041zm0 9.34v-4.6h20.041v4.6h-20.041zm0 9.339v-4.6h20.041v4.6h-20.041zm0 9.34v-4.6h20.041v4.6h-20.041zm0 9.34v-4.6h20.041v4.6h-20.041zm0 9.339v-4.6h20.041v4.6h-20.041zm0 9.339v-4.6h20.041v4.6h-20.041zm0 9.34v-4.6h20.041v4.6h-20.041zm0 9.34v-4.6h20.041v4.6h-20.041zm0 9.339v-4.6h20.041v4.6h-20.041zm0 9.34v-4.6h20.041v4.6h-20.041zm0 9.339v-4.6h20.041v4.6h-20.041zm0 9.339v-4.6h20.041v4.6h-20.041zm0 9.34v-4.6h20.041v4.6h-20.041zm0 9.34v-4.6h20.041v4.6h-20.041zm0 9.339v-4.6h20.041v4.6h-20.041zm0 9.34v-4.6h20.041v4.6h-20.041zm0 9.339v-4.6h20.041v4.6h-20.041zm0 9.34v-4.6h20.041v4.6h-20.041zm0 9.339v-4.6h20.041v4.6h-20.041zm0 9.34V295h20.041v4.6h-20.041zm0 9.339v-4.6h20.041v4.6h-20.041zm0 9.339v-4.6h20.041v4.6h-20.041zm0 9.34v-4.6h20.041v4.6h-20.041z"/><path fill="#6C3AB4" d="M283.252 383.549h116.205V238.963H283.252z"/><path fill="#652786" d="M283.252 383.549h45V238.963h-45z"/><path fill="#6C3AB4" d="M298.37 383.549h15.118V238.963H298.37z"/><path fill="#65EBE7" d="M380.779 257.448v-6.72h6.72v6.72h-6.72zm0 36.69v-6.72h6.72v6.72h-6.72zm0-18.345v-6.72h6.72v6.72h-6.72zm0 36.69v-6.72h6.72v6.72h-6.72z"/><path fill="url(#f)" d="M.488 216.549h107.565V.89H.488z" transform="translate(571 167)"/><path fill="#F06281" d="M602.306 371.542v-5.278h46.512v5.278h-46.512zm0-147.451v-5.278h46.512v5.278h-46.512zm0 18.431v-5.278h46.512v5.278h-46.512zm0 18.432v-5.278h46.512v5.278h-46.512zm0 18.431v-5.278h46.512v5.278h-46.512zm0 18.432v-5.278h46.512v5.278h-46.512zm0 18.431v-5.278h46.512v5.278h-46.512zm0 18.431v-5.278h46.512v5.278h-46.512zm0 18.432v-5.278h46.512v5.278h-46.512z"/><path fill="#0A6DD9" d="M640.544 383.549h176.291V212.374H640.544z"/><path fill="#0C59B7" d="M640.544 383.549h38.509V212.374h-38.509z"/><path fill="url(#g)" d="M156.098.374L39.101 106.932v10.47L167.594.374z" transform="translate(640 212)"/><path fill="#3194FF" d="M679.101 383.549h137.734V222.372L679.101 347.817z"/><path fill="#8B57FF" d="M816.836 351.849h58.528v-11.773h-58.528z"/><path fill="#5F3DC7" d="M791.719 351.849h37.847v-11.773h-37.847z"/><path fill="#8B57FF" d="M813.466 383.549h86.602v-37.166h-86.602z"/><path fill="#5F3DC7" d="M777.939 383.549h38.896v-37.166h-38.896z"/><path fill="#3C2878" d="M803.648 376.41v-4.625h4.625v4.625h-4.625zm-19.191-18.675v-4.625h4.625v4.625h-4.625zm9.595 0v-4.625h4.625v4.625h-4.625zm9.596 0v-4.625h4.625v4.625h-4.625zm-19.191 9.338v-4.625h4.625v4.625h-4.625zm9.595 0v-4.625h4.625v4.625h-4.625zm9.596 0v-4.625h4.625v4.625h-4.625zm-19.191 9.337v-4.625h4.625v4.625h-4.625zm9.595 0v-4.625h4.625v4.625h-4.625z"/><g><path fill="#F8E71C" d="M953.854 208.396h83.285v-16.098h-83.285z"/><path fill="#50E3C2" d="M949.865 239.657h91.262V196.27h-91.262z"/><path fill="#9CF2DF" d="M968.331 239.657h54.332V196.27h-54.332z"/><path fill="#42CEAF" d="M979.276 239.657h32.441V196.27h-32.441z"/><path fill="#9CF2DF" d="M987.95 239.657h15.092V196.27H987.95z"/><path fill="#42CEAF" d="M939.412 383.549h112.17V231.936h-112.17z"/><path fill="url(#c)" d="M112.582 191.549V69.206l-89.44 81.459v40.884z" transform="translate(939 192)"/><path fill="#7DDCC7" d="M962.568 383.549h65.857V231.936h-65.857z"/><path fill="#3BBC9F" d="M983.492 260.986v-4.524h24.008v4.524h-24.008zm0 18.358v-4.524h24.008v4.524h-24.008zm0 18.358v-4.524h24.008v4.524h-24.008zm0 18.358v-4.524h24.008v4.524h-24.008zm0 18.357v-4.524h24.008v4.524h-24.008zm0 18.358v-4.524h24.008v4.524h-24.008zm0 18.358v-4.524h24.008v4.524h-24.008z"/></g><g><path fill="#FF9BD6" d="M1124.049 383.549h117.013V261.206h-117.013z"/><path fill="#F98BD4" d="M1124.05 383.549h11.072V261.206h-11.072zm21.513 0h11.073V261.206h-11.073zm21.514 0h11.073V261.206h-11.073z"/></g><g><path fill="#9026C0" d="M450.351 383.549h100.308V152.765H450.351z"/><path fill="#F96CAA" d="M487.875 92.633h25.259V24.765h-25.259z"/><path fill="#F96CAA" d="M498.914 68.369h3.182V.501h-3.182z"/><path fill="#F23789" d="M468.066 115.738h64.877V88.292h-64.877z"/><path fill="#D935A7" d="M455.081 136.422h90.848v-27.446h-90.848z"/><path fill="#9026C0" d="M450.351 181.085h100.308v-55.766H450.351z"/><path fill="#AE40E0" d="M529.83 238.963h41.658v-86.198H529.83z"/><path fill="#BA4FEA" d="M523.973 383.549h53.371V238.963h-53.371z"/><path fill="url(#d)" d="M47.181 383.549h20.843l32.95-30.009v-63.28L47.18 339.252z" opacity=".616" transform="translate(423)"/><path fill="#BA4FEA" d="M423.665 383.549h53.371V238.963h-53.371z"/><path fill="#AE40E0" d="M429.521 238.963h41.659v-86.198h-41.659z"/><path fill="url(#d)" d="M.665 383.549h20.422l32.95-30.009v-63.28L.664 338.869z" transform="translate(423)"/></g><g><path fill="#F23789" d="M200.092 319.776l-16.776-29.057v-13.704H179.9v-27.887h-3.032v27.887h-3.416v13.903l-16.66 28.858-21.652 37.5h86.602z"/><path fill="#D935A7" d="M125.118 383.549h106.648v-46.691H125.118z"/><path fill="#B5278A" d="M125.118 383.549h21.043v-46.691h-21.043z"/></g></g></svg>