<svg xmlns="http://www.w3.org/2000/svg" width="429" height="310"><defs><linearGradient id="a" x1="50%" x2="50%" y1="50%" y2="592.725%"><stop offset="0%" stop-opacity="0"/><stop offset="100%"/></linearGradient><linearGradient id="b" x1="50%" x2="50%" y1="0%" y2="100%"><stop offset="0%" stop-opacity="0"/><stop offset="100%"/></linearGradient></defs><g fill="none" fill-rule="evenodd"><path fill="url(#a)" d="M337.621 204H90.416L8 277.934h412.038z" transform="translate(0 32)"/><path fill="#98E3C5" d="M343.135 186.516H85.9L.14 263.026h428.756z"/><path fill="#D6F4E8" d="M358.695 250.662c0-5.933 11.525-10.887 26.898-12.086l-39.515-38.905a67.66 67.66 0 0 1-3.218.076c-11.684 0-21.157-2.962-21.157-6.615 0-.215.036-.426.1-.635H106.957c.064.209.1.42.1.635 0 3.653-9.473 6.615-21.158 6.615-1.003 0-1.988-.024-2.954-.066L43.42 238.597c15.246 1.234 26.645 6.165 26.645 12.065 0 .586-.12 1.161-.338 1.725h289.306a4.77 4.77 0 0 1-.338-1.725z"/><path fill="#70D9AF" d="M218.1 233.207l-.225-3.033c4.088-.63 7.198-1.818 9.307-3.507 2.011-1.612 2.757-3.396 2.324-5.32-.377-1.68-1.499-2.948-3.338-3.848-1.787-.874-4.822-1.648-9.07-2.328l-.04-4.725c.73.084 1.864.448 3.427 1.102 1.498.627 2.471.945 2.897.945.738 0 1.369-.162 1.888-.483.514-.317.726-.687.64-1.108-.142-.706-1.029-1.265-2.644-1.684-1.59-.413-3.68-.633-6.287-.664l-.05-1.198c21.587.414 38.688 6.049 38.688 12.94 0 6.766-16.486 12.32-37.517 12.911zm-44.957-12.911c0-7.065 17.974-12.81 40.328-12.962l-.032 1.29c-3.04.212-5.558.773-7.587 1.703-2.1.963-3.329 2.152-3.641 3.594-.302 1.389.264 2.518 1.736 3.354 1.563.893 4.65 1.757 9.314 2.587l-.297 7.188c-2.57-.298-4.68-1.212-6.294-2.695-1.149-1.065-2.274-1.585-3.402-1.585-.973 0-1.848.24-2.633.726-.797.492-1.28 1.104-1.446 1.843-.308 1.37.706 2.536 3.101 3.475 2.457.963 5.997 1.532 10.585 1.688l-.215 2.746c-21.977-.283-39.517-5.973-39.517-12.952zm40.477-5.815c-2.697-.46-3.987-1.155-3.905-2.069.095-1.05 1.428-1.696 3.986-1.966l-.08 4.035zm3.634 6.168c3.075.488 4.708 1.454 4.869 2.943.166 1.53-1.363 2.627-4.633 3.245l-.236-6.188zm-2.874-19.339c30.488 0 55.204 9.461 55.204 21.132 0 11.671-24.716 21.132-55.204 21.132-30.489 0-55.205-9.461-55.205-21.132 0-11.67 24.716-21.132 55.205-21.132zm-79.342 21.132c0 3.66-7.752 6.628-17.315 6.628-9.562 0-17.315-2.967-17.315-6.628 0-3.66 7.753-6.628 17.315-6.628 9.563 0 17.315 2.968 17.315 6.628zm194.372 0c0 3.66-7.751 6.628-17.314 6.628-9.562 0-17.314-2.967-17.314-6.628 0-3.66 7.752-6.628 17.314-6.628 9.563 0 17.314 2.968 17.314 6.628z"/><path fill="#47CD97" d="M.139 271.708h428.096v-8.683H.139z"/><path fill="#98E3C5" d="M343.135 169.421H85.9L.14 245.931h428.756z"/><path fill="#D6F4E8" d="M358.695 233.566c0-5.932 11.525-10.886 26.898-12.085l-39.515-38.905a67.66 67.66 0 0 1-3.218.076c-11.684 0-21.157-2.962-21.157-6.615 0-.215.036-.426.1-.635H106.957c.064.209.1.42.1.635 0 3.653-9.473 6.615-21.158 6.615-1.003 0-1.988-.024-2.954-.066L43.42 221.502c15.246 1.234 26.645 6.165 26.645 12.064 0 .587-.12 1.162-.338 1.726h289.306a4.77 4.77 0 0 1-.338-1.726z"/><path fill="#70D9AF" d="M218.1 216.112l-.225-3.033c4.088-.63 7.198-1.818 9.307-3.507 2.011-1.612 2.757-3.396 2.324-5.32-.377-1.68-1.499-2.948-3.338-3.848-1.787-.874-4.822-1.648-9.07-2.329l-.04-4.724c.73.084 1.864.448 3.427 1.102 1.498.627 2.471.945 2.897.945.738 0 1.369-.162 1.888-.483.514-.317.726-.687.64-1.108-.142-.706-1.029-1.265-2.644-1.685-1.59-.412-3.68-.632-6.287-.663l-.05-1.198c21.587.414 38.688 6.048 38.688 12.94 0 6.766-16.486 12.32-37.517 12.911zM173.143 203.2c0-7.064 17.974-12.81 40.328-12.96l-.032 1.29c-3.04.211-5.558.772-7.587 1.702-2.1.963-3.329 2.152-3.641 3.594-.302 1.389.264 2.517 1.736 3.354 1.563.893 4.65 1.757 9.314 2.587l-.297 7.188c-2.57-.298-4.68-1.212-6.294-2.695-1.149-1.065-2.274-1.585-3.402-1.585-.973 0-1.848.24-2.633.725-.797.493-1.28 1.105-1.446 1.844-.308 1.37.706 2.536 3.101 3.475 2.457.963 5.997 1.532 10.585 1.688l-.215 2.746c-21.977-.283-39.517-5.973-39.517-12.953zm40.477-5.814c-2.697-.46-3.987-1.155-3.905-2.07.095-1.049 1.428-1.695 3.986-1.965l-.08 4.035zm3.634 6.168c3.075.488 4.708 1.454 4.869 2.943.166 1.53-1.363 2.627-4.633 3.245l-.236-6.188zm-2.874-19.34c30.488 0 55.204 9.462 55.204 21.133s-24.716 21.132-55.204 21.132c-30.489 0-55.205-9.461-55.205-21.132 0-11.67 24.716-21.132 55.205-21.132zm-79.342 21.133c0 3.66-7.752 6.628-17.315 6.628-9.562 0-17.315-2.968-17.315-6.628s7.753-6.628 17.315-6.628c9.563 0 17.315 2.968 17.315 6.628zm194.372 0c0 3.66-7.751 6.628-17.314 6.628-9.562 0-17.314-2.968-17.314-6.628s7.752-6.628 17.314-6.628c9.563 0 17.314 2.968 17.314 6.628z"/><path fill="#47CD97" d="M.139 254.613h428.096v-8.683H.139z"/><path fill="#98E3C5" d="M343.135 152.231H85.9L.14 228.741h428.756z"/><path fill="#D6F4E8" d="M358.695 216.376c0-5.932 11.525-10.886 26.898-12.085l-39.515-38.905c-1.05.05-2.123.075-3.218.075-11.684 0-21.157-2.962-21.157-6.615 0-.214.036-.425.1-.634H106.957c.064.209.1.42.1.634 0 3.653-9.473 6.615-21.158 6.615a67.99 67.99 0 0 1-2.954-.065L43.42 204.312c15.246 1.234 26.645 6.165 26.645 12.064 0 .586-.12 1.162-.338 1.726h289.306a4.77 4.77 0 0 1-.338-1.726z"/><path fill="#70D9AF" d="M218.1 198.922l-.225-3.033c4.088-.631 7.198-1.818 9.307-3.507 2.011-1.612 2.757-3.396 2.324-5.32-.377-1.68-1.499-2.949-3.338-3.848-1.787-.874-4.822-1.648-9.07-2.329l-.04-4.724c.73.084 1.864.448 3.427 1.102 1.498.627 2.471.945 2.897.945.738 0 1.369-.162 1.888-.483.514-.318.726-.687.64-1.108-.142-.706-1.029-1.265-2.644-1.685-1.59-.413-3.68-.632-6.287-.664l-.05-1.197c21.587.414 38.688 6.048 38.688 12.94 0 6.765-16.486 12.32-37.517 12.911zm-44.957-12.912c0-7.065 17.974-12.81 40.328-12.961l-.032 1.29c-3.04.212-5.558.773-7.587 1.703-2.1.963-3.329 2.152-3.641 3.594-.302 1.388.264 2.517 1.736 3.354 1.563.893 4.65 1.757 9.314 2.587l-.297 7.188c-2.57-.298-4.68-1.212-6.294-2.695-1.149-1.065-2.274-1.585-3.402-1.585-.973 0-1.848.24-2.633.725-.797.493-1.28 1.105-1.446 1.844-.308 1.37.706 2.536 3.101 3.475 2.457.963 5.997 1.532 10.585 1.688l-.215 2.746c-21.977-.284-39.517-5.973-39.517-12.953zm40.477-5.814c-2.697-.46-3.987-1.155-3.905-2.07.095-1.05 1.428-1.695 3.986-1.965l-.08 4.035zm3.634 6.167c3.075.489 4.708 1.455 4.869 2.944.166 1.53-1.363 2.627-4.633 3.245l-.236-6.189zm-2.874-19.338c30.488 0 55.204 9.461 55.204 21.132 0 11.67-24.716 21.132-55.204 21.132-30.489 0-55.205-9.461-55.205-21.132 0-11.67 24.716-21.132 55.205-21.132zm-79.342 21.132c0 3.66-7.752 6.628-17.315 6.628-9.562 0-17.315-2.968-17.315-6.628s7.753-6.628 17.315-6.628c9.563 0 17.315 2.967 17.315 6.628zm194.372 0c0 3.66-7.751 6.628-17.314 6.628-9.562 0-17.314-2.968-17.314-6.628s7.752-6.628 17.314-6.628c9.563 0 17.314 2.967 17.314 6.628z"/><path fill="#47CD97" d="M.139 237.423h428.096v-8.683H.139z"/><path fill="#98E3C5" d="M343.135 135.231H85.9L.14 211.741h428.756z"/><path fill="#D6F4E8" d="M358.695 199.376c0-5.932 11.525-10.886 26.898-12.085l-39.515-38.905c-1.05.05-2.123.075-3.218.075-11.684 0-21.157-2.962-21.157-6.615 0-.214.036-.425.1-.634H106.957c.064.209.1.42.1.634 0 3.653-9.473 6.615-21.158 6.615a67.99 67.99 0 0 1-2.954-.065L43.42 187.312c15.246 1.234 26.645 6.165 26.645 12.064 0 .586-.12 1.162-.338 1.726h289.306a4.77 4.77 0 0 1-.338-1.726z"/><path fill="#70D9AF" d="M218.1 181.922l-.225-3.033c4.088-.631 7.198-1.818 9.307-3.507 2.011-1.612 2.757-3.396 2.324-5.32-.377-1.68-1.499-2.949-3.338-3.848-1.787-.874-4.822-1.648-9.07-2.329l-.04-4.724c.73.084 1.864.448 3.427 1.102 1.498.627 2.471.945 2.897.945.738 0 1.369-.162 1.888-.483.514-.318.726-.687.64-1.108-.142-.706-1.029-1.265-2.644-1.685-1.59-.413-3.68-.632-6.287-.664l-.05-1.197c21.587.414 38.688 6.048 38.688 12.94 0 6.765-16.486 12.32-37.517 12.911zm-44.957-12.912c0-7.065 17.974-12.81 40.328-12.961l-.032 1.29c-3.04.212-5.558.773-7.587 1.703-2.1.963-3.329 2.152-3.641 3.594-.302 1.388.264 2.517 1.736 3.354 1.563.893 4.65 1.757 9.314 2.587l-.297 7.188c-2.57-.298-4.68-1.212-6.294-2.695-1.149-1.065-2.274-1.585-3.402-1.585-.973 0-1.848.24-2.633.725-.797.493-1.28 1.105-1.446 1.844-.308 1.37.706 2.536 3.101 3.475 2.457.963 5.997 1.532 10.585 1.688l-.215 2.746c-21.977-.284-39.517-5.973-39.517-12.953zm40.477-5.814c-2.697-.46-3.987-1.155-3.905-2.07.095-1.05 1.428-1.695 3.986-1.965l-.08 4.035zm3.634 6.167c3.075.489 4.708 1.455 4.869 2.944.166 1.53-1.363 2.627-4.633 3.245l-.236-6.189zm-2.874-19.338c30.488 0 55.204 9.461 55.204 21.132 0 11.67-24.716 21.132-55.204 21.132-30.489 0-55.205-9.461-55.205-21.132 0-11.67 24.716-21.132 55.205-21.132zm-79.342 21.132c0 3.66-7.752 6.628-17.315 6.628-9.562 0-17.315-2.968-17.315-6.628s7.753-6.628 17.315-6.628c9.563 0 17.315 2.967 17.315 6.628zm194.372 0c0 3.66-7.751 6.628-17.314 6.628-9.562 0-17.314-2.968-17.314-6.628s7.752-6.628 17.314-6.628c9.563 0 17.314 2.967 17.314 6.628z"/><path fill="#47CD97" d="M.139 220.423h428.096v-8.683H.139z"/><g><path fill="#98E3C5" d="M343.135 118.231H85.9L.14 194.741h428.756z"/><path fill="#D6F4E8" d="M358.695 182.376c0-5.932 11.525-10.886 26.898-12.085l-39.515-38.905c-1.05.05-2.123.075-3.218.075-11.684 0-21.157-2.962-21.157-6.615 0-.214.036-.425.1-.634H106.957c.064.209.1.42.1.634 0 3.653-9.473 6.615-21.158 6.615a67.99 67.99 0 0 1-2.954-.065L43.42 170.312c15.246 1.234 26.645 6.165 26.645 12.064 0 .586-.12 1.162-.338 1.726h289.306a4.77 4.77 0 0 1-.338-1.726z"/><path fill="#70D9AF" d="M218.1 164.922l-.225-3.033c4.088-.631 7.198-1.818 9.307-3.507 2.011-1.612 2.757-3.396 2.324-5.32-.377-1.68-1.499-2.949-3.338-3.848-1.787-.874-4.822-1.648-9.07-2.329l-.04-4.724c.73.084 1.864.448 3.427 1.102 1.498.627 2.471.945 2.897.945.738 0 1.369-.162 1.888-.483.514-.318.726-.687.64-1.108-.142-.706-1.029-1.265-2.644-1.685-1.59-.413-3.68-.632-6.287-.664l-.05-1.197c21.587.414 38.688 6.048 38.688 12.94 0 6.765-16.486 12.32-37.517 12.911zm-44.957-12.912c0-7.065 17.974-12.81 40.328-12.961l-.032 1.29c-3.04.212-5.558.773-7.587 1.703-2.1.963-3.329 2.152-3.641 3.594-.302 1.388.264 2.517 1.736 3.354 1.563.893 4.65 1.757 9.314 2.587l-.297 7.188c-2.57-.298-4.68-1.212-6.294-2.695-1.149-1.065-2.274-1.585-3.402-1.585-.973 0-1.848.24-2.633.725-.797.493-1.28 1.105-1.446 1.844-.308 1.37.706 2.536 3.101 3.475 2.457.963 5.997 1.532 10.585 1.688l-.215 2.746c-21.977-.284-39.517-5.973-39.517-12.953zm40.477-5.814c-2.697-.46-3.987-1.155-3.905-2.07.095-1.05 1.428-1.695 3.986-1.965l-.08 4.035zm3.634 6.167c3.075.489 4.708 1.455 4.869 2.944.166 1.53-1.363 2.627-4.633 3.245l-.236-6.189zm-2.874-19.338c30.488 0 55.204 9.461 55.204 21.132 0 11.67-24.716 21.132-55.204 21.132-30.489 0-55.205-9.461-55.205-21.132 0-11.67 24.716-21.132 55.205-21.132zm-79.342 21.132c0 3.66-7.752 6.628-17.315 6.628-9.562 0-17.315-2.968-17.315-6.628s7.753-6.628 17.315-6.628c9.563 0 17.315 2.967 17.315 6.628zm194.372 0c0 3.66-7.751 6.628-17.314 6.628-9.562 0-17.314-2.968-17.314-6.628s7.752-6.628 17.314-6.628c9.563 0 17.314 2.967 17.314 6.628z"/><path fill="#47CD97" d="M.139 203.423h428.096v-8.683H.139z"/></g><g><path fill="#98E3C5" d="M343.135 101.231H85.9L.14 177.741h428.756z"/><path fill="#D6F4E8" d="M358.695 165.376c0-5.932 11.525-10.886 26.898-12.085l-39.515-38.905c-1.05.05-2.123.075-3.218.075-11.684 0-21.157-2.962-21.157-6.615 0-.214.036-.425.1-.634H106.957c.064.209.1.42.1.634 0 3.653-9.473 6.615-21.158 6.615a67.99 67.99 0 0 1-2.954-.065L43.42 153.312c15.246 1.234 26.645 6.165 26.645 12.064 0 .586-.12 1.162-.338 1.726h289.306a4.77 4.77 0 0 1-.338-1.726z"/><path fill="#70D9AF" d="M218.1 147.922l-.225-3.033c4.088-.631 7.198-1.818 9.307-3.507 2.011-1.612 2.757-3.396 2.324-5.32-.377-1.68-1.499-2.949-3.338-3.848-1.787-.874-4.822-1.648-9.07-2.329l-.04-4.724c.73.084 1.864.448 3.427 1.102 1.498.627 2.471.945 2.897.945.738 0 1.369-.162 1.888-.483.514-.318.726-.687.64-1.108-.142-.706-1.029-1.265-2.644-1.685-1.59-.413-3.68-.632-6.287-.664l-.05-1.197c21.587.414 38.688 6.048 38.688 12.94 0 6.765-16.486 12.32-37.517 12.911zm-44.957-12.912c0-7.065 17.974-12.81 40.328-12.961l-.032 1.29c-3.04.212-5.558.773-7.587 1.703-2.1.963-3.329 2.152-3.641 3.594-.302 1.388.264 2.517 1.736 3.354 1.563.893 4.65 1.757 9.314 2.587l-.297 7.188c-2.57-.298-4.68-1.212-6.294-2.695-1.149-1.065-2.274-1.585-3.402-1.585-.973 0-1.848.24-2.633.725-.797.493-1.28 1.105-1.446 1.844-.308 1.37.706 2.536 3.101 3.475 2.457.963 5.997 1.532 10.585 1.688l-.215 2.746c-21.977-.284-39.517-5.973-39.517-12.953zm40.477-5.814c-2.697-.46-3.987-1.155-3.905-2.07.095-1.05 1.428-1.695 3.986-1.965l-.08 4.035zm3.634 6.167c3.075.489 4.708 1.455 4.869 2.944.166 1.53-1.363 2.627-4.633 3.245l-.236-6.189zm-2.874-19.338c30.488 0 55.204 9.461 55.204 21.132 0 11.67-24.716 21.132-55.204 21.132-30.489 0-55.205-9.461-55.205-21.132 0-11.67 24.716-21.132 55.205-21.132zm-79.342 21.132c0 3.66-7.752 6.628-17.315 6.628-9.562 0-17.315-2.968-17.315-6.628s7.753-6.628 17.315-6.628c9.563 0 17.315 2.967 17.315 6.628zm194.372 0c0 3.66-7.751 6.628-17.314 6.628-9.562 0-17.314-2.968-17.314-6.628s7.752-6.628 17.314-6.628c9.563 0 17.314 2.967 17.314 6.628z"/><path fill="#47CD97" d="M.139 186.423h428.096v-8.683H.139z"/><path fill="url(#b)" d="M343.135.231H85.9L.14 76.741h428.756z" opacity=".313" transform="translate(0 101)"/></g><g><path fill="#98E3C5" d="M342.996 32H85.76L0 108.934h428.757z"/><path fill="#D6F4E8" d="M358.695 96.734c0-5.965 11.525-10.947 26.898-12.152L346.078 45.46a67.66 67.66 0 0 1-3.218.076c-11.684 0-21.157-2.978-21.157-6.652 0-.215.036-.428.1-.638H106.957c.064.21.1.423.1.638 0 3.674-9.473 6.652-21.158 6.652a67.99 67.99 0 0 1-2.954-.065L43.42 84.603c15.246 1.24 26.645 6.199 26.645 12.131 0 .59-.12 1.168-.338 1.735h289.306a4.82 4.82 0 0 1-.338-1.735z"/><path fill="#70D9AF" d="M218.1 79.183l-.225-3.05c4.088-.635 7.198-1.828 9.307-3.526 2.011-1.621 2.757-3.415 2.324-5.35-.377-1.69-1.499-2.965-3.338-3.87-1.787-.879-4.822-1.657-9.07-2.341l-.04-4.75c.73.084 1.864.45 3.427 1.108 1.498.63 2.471.95 2.897.95.738 0 1.369-.163 1.888-.486.514-.32.726-.691.64-1.114-.142-.71-1.029-1.272-2.644-1.694-1.59-.415-3.68-.636-6.287-.668l-.05-1.204c21.587.416 38.688 6.082 38.688 13.011 0 6.804-16.486 12.39-37.517 12.984zm-44.957-12.984c0-7.104 17.974-12.88 40.328-13.033l-.032 1.297c-3.04.213-5.558.777-7.587 1.712-2.1.97-3.329 2.165-3.641 3.615-.302 1.396.264 2.531 1.736 3.372 1.563.898 4.65 1.767 9.314 2.601l-.297 7.228c-2.57-.3-4.68-1.218-6.294-2.71-1.149-1.07-2.274-1.593-3.402-1.593-.973 0-1.848.241-2.633.73-.797.495-1.28 1.11-1.446 1.853-.308 1.378.706 2.55 3.101 3.494 2.457.969 5.997 1.54 10.585 1.698l-.215 2.76c-21.977-.284-39.517-6.006-39.517-13.024zm40.477-5.846c-2.697-.463-3.987-1.162-3.905-2.081.095-1.056 1.428-1.706 3.986-1.977l-.08 4.058zm3.634 6.201c3.075.491 4.708 1.463 4.869 2.96.166 1.54-1.363 2.642-4.633 3.263l-.236-6.223zm-2.874-19.446c30.488 0 55.204 9.514 55.204 21.25s-24.716 21.25-55.204 21.25c-30.489 0-55.205-9.514-55.205-21.25s24.716-21.25 55.205-21.25zm-79.342 21.25c0 3.68-7.752 6.665-17.315 6.665-9.562 0-17.315-2.984-17.315-6.665s7.753-6.665 17.315-6.665c9.563 0 17.315 2.984 17.315 6.665zm194.372 0c0 3.68-7.751 6.665-17.314 6.665-9.562 0-17.314-2.984-17.314-6.665s7.752-6.665 17.314-6.665c9.563 0 17.314 2.984 17.314 6.665z"/><path fill="#47CD97" d="M.139 116.898h428.096v-8.731H.139z"/></g><ellipse cx="214.5" cy="92.5" fill="url(#b)" opacity=".104" rx="50.5" ry="10.5"/><g><path fill="#36BDED" d="M222.106 25.524a18.803 18.803 0 0 0-12.983-.68c-6.216 1.933-14.658 5.674-17.243 9.873-3.015 4.898-4.429 26.694-3.684 28.453.744 1.759 16.352 11.196 26.138 11.773 7.87.464 19.227-2.012 19.86-3.99.632-1.978 3.75-29.58 2.522-31.889-.894-1.676-7.086-10.314-14.61-13.54"/><path fill="#FBD6C1" d="M223.177 16.118s.497-1.037 1.36-1.117c.864-.078.3 3.313.05 4.608-.253 1.294-1.24 1.787-1.587 1.041l.177-4.532z"/><path fill="#FCDFCF" d="M223.971 8.032C223.822 4.651 218.92 5.348 215.5 5c-3.419.348-8.32-.349-8.471 3.032-.152 3.41.328 13.223.617 15.73.286 2.48 5.167 6.957 7.854 7.238 2.687-.28 7.567-4.758 7.853-7.238.29-2.507.769-12.32.618-15.73"/><path fill="#69183A" d="M222.622 1.757C220.42.067 216.962-.065 215 .019c-1.96-.084-5.42.049-7.622 1.738-3.218 2.467-2.184 5.028-2.331 6.075-.149 1.045.332 6.649.628 7.62.296.973 1.16.354 1.16.354s-.05-5.062 1.948-5.585c2-.522 3.338 1.888 5.332 2.44.31.085.602.146.885.198.283-.052.576-.113.886-.199 1.995-.55 3.333-2.961 5.33-2.439 1.999.523 1.952 5.585 1.952 5.585s.861.62 1.158-.354c.295-.971.776-6.575.63-7.62-.15-1.047.883-3.608-2.334-6.075"/><path fill="#FBD6C1" d="M206.824 16.118s-.498-1.037-1.361-1.117c-.864-.078-.3 3.313-.05 4.608.253 1.294 1.24 1.787 1.587 1.041l-.176-4.532z"/><path fill="#E7386B" d="M188.469 61s20.428 2.6 28.968 2.31c8.539-.288 23.733-.435 23.733-.435s2.421 7.815-1.008 10.706c-3.429 2.892-23.95 11.275-38.216 5.347C187.682 73.004 187.17 62.003 188.47 61"/><path fill="#FBD6C1" d="M204 43.885l.346-.384a5.411 5.411 0 0 0 1.363-3.601v-6.36c0-.206.023-.412.07-.612l.571-2.49.668-6.92a.558.558 0 0 1 .71-.494l.171.05a.79.79 0 0 1 .547.726l.28 7.082 1.14-.79a1.134 1.134 0 0 1 1.554.248l.556.722.134-.085a1.08 1.08 0 0 1 1.507.36l.416.679 1.075-.652a.534.534 0 0 1 .757.231l.018.038a1.17 1.17 0 0 1-.278 1.389l-1.449 1.26a3.916 3.916 0 0 0-1.326 2.89l-.032 2.232a7.911 7.911 0 0 1-1.716 4.815L208.06 48 204 43.885z"/><path fill="#6AC7F0" d="M206.289 42.615s-1.514-1.48-3.056.152c-1.203 1.276-5.065 5.435-9.255 8.623-2.64 2.008-5.256 6.343-5.835 9.256-1.067 5.37 4.013 7.452 9.528 2.708 5.517-4.743 7.842-8.631 9.725-10.409 1.884-1.777 3.287-3.998 2.254-5.888-1.035-1.887-2.717-3.742-3.361-4.442"/><path fill="#EB5F7F" d="M207.023 84.168s17.256-11.682 23.499-15.66c5.435-3.463 15.871-11.794 20.773-4.784 4.903 7.009-1.783 13.288-7.28 16.939-4.788 3.182-25.475 11.924-29.416 15.335-2.525.145-7.994-7.594-7.576-11.83"/><path fill="#E7386B" d="M218.161 85.497c-1.624-1.923-2.571-4.248-3.652-6.497-4.214 2.838-7.486 5.055-7.486 5.055-.42 4.277 5.09 12.09 7.636 11.943 1.543-1.338 5.634-3.489 10.341-5.807-2.59-1.086-5.001-2.523-6.839-4.694"/><path fill="#D4C9A4" d="M196.988 88.371s-3.976 4.454-4.842 6.124c-.868 1.67 2.42 2.505 2.42 2.505s12.468-1.445 16.081-3.89c3.613-2.446-.839-6.037-3.707-6.037-2.869 0-7.783-.536-9.952 1.298m20.776 1.369s5.496 4.428 11.281 4.886C234.83 95.084 237 96 237 96s-3.328-7.94-7.087-10.229c-3.76-2.292-10.991-3.36-12.15-2.444-1.157.915-.867 3.512 0 6.413"/><path fill="#69183A" d="M228.158 85.51s-.64 8.054 3.932 10.51c4.57 2.456 10.91 2.601 10.91.58 0-2.024-1.62-7.802-8.405-10.691-6.783-2.889-10.277-3.95-10.595-1.686 3.237.928 4.158 1.288 4.158 1.288m-19.334 1.22s-14.104-2.15-18.953.923c-4.848 3.07-7.787 8.446-6.613 10.136 1.177 1.69 8.67 1.535 11.02 0 2.351-1.536 3.673-7.986 3.087-9.216 1.973-.786 8.814-1.075 11.46-.46 2.644.614 0-1.383 0-1.383"/><path fill="#EC6B86" d="M220.801 82.59s-8.907-6.084-18.02-11.538c-5.923-3.546-15.978-13.604-20.578-11.848-4.603 1.753-7.276 7.096-5.792 11.587 1.485 4.49 14.791 12.633 21.417 15.656 8.128 3.71 18.083 5.45 20.608 7.349 2.523 1.9 5.16-10.038 2.365-11.207"/><path fill="#EAE4D3" d="M208.265 57.227L194 63.982s.815 1.012.994.938c.179-.076 22.911-1.04 22.911-1.04l.762 1.12L240 62.9l-.05-.676-20.392-.163s-7.176-6.322-11.293-4.834"/><path fill="#69183A" d="M193.577 66l23.975-1.346.61 1.15 22.31-1.881L241 62l-22.065 1.862-.94-1.834L193 64.135z"/><path fill="#F4F1E8" d="M195 64s6.498-2.585 11.8-3.893c10.175-2.511 12.253 2.114 12.253 2.114l.943 1.615L241 62.266s-14.012-4.871-20.794-1.598c0 0-1.91-6.297-11.793-4.263C199.843 58.17 195 64 195 64"/><path fill="#FBD6C1" d="M225.708 64.76c-.518-.228-1.114-.301-1.645-.105-.329.12-.64.29-.918.505l-1.045.805a3.468 3.468 0 0 1-4.248-.026l-2.207-1.74a3.963 3.963 0 0 0-1.663-.771 1.62 1.62 0 0 0-.45-.023s-1.263.1-1.091.627l-.648-.349c-.898-.483-1.706-.815-2.705-.632-.678.123-.682.54-.643 1.047 0 0 .102.227.381.536a2.978 2.978 0 0 0-1.17-.03c-.678.124-.682.541-.643 1.048 0 0 .346.807 1.627 1.467l6.26 4.084a4.92 4.92 0 0 0 2.689.797h.357c.269 0 .538-.019.8-.074a7.652 7.652 0 0 0 4.395-2.715l2.285-2.878c1.099-1.37.282-1.573.282-1.573"/></g></g></svg>