<svg xmlns="http://www.w3.org/2000/svg" width="1440" height="589"><defs><linearGradient id="a" x1="50%" x2="50%" y1="0%" y2="82.679%"><stop offset="0%" stop-color="#D2D2D2"/><stop offset="100%" stop-color="#D2D2D2" stop-opacity="0"/></linearGradient></defs><path fill="url(#a)" d="M519.843 305.868L383.927 464.761l-85 139 84.193-139.586 136-159L682.77 183.9 494.537 177l-40.024 3-192 5 191.95-5.998 40.055-3 189.54 6.946L665.045 75.79l-74.092-52.777 246.603-2.01 205.539 23.755-51.967 17.715 238.517 72.549 177.87 158.768-2.529 35.908-59.105 70.124-115.408 66.27-166.228-116.161-172.95-101.97-205.88-63.964-165.573 121.871zm165.36-123.77l-.194.494-.058-.308.251-.186zm206.445 64.925l173.138 102.067 165.74 115.818 114.649-65.798 58.838-69.808 2.471-35.092-177.235-158.264-241.378-73.419 50.705-17.285L837.504 22l-243.458 1.987 71.908 51.223 20.095 107.506 205.6 64.307zm453.603 152.043l-.133.112.057-.068.076-.044zM686.517 183.073l24.978 159.86 27.5 203.5-28.489-203.356-25.023-160.15L735.546 74.79l56.292-72.396 45.818 18.63 228.99 74.998 187 57-187.302-56.047-229.032-75.012-45.15-18.357-55.732 71.656-49.913 107.81zM986.612 62.147L791.355 2.98l201.033 59.874-256.787 13.142-282.863 103.95-218.943 159.959L84 383.874v180.511l67.95 139.897L83 564.615v-181.49l150.276-44.08 218.929-159.949L735.328 75.031l251.284-12.884zm78.881 34.953l-24.944-51.883.902-.434 25.056 52.117-6.007 104.085 4.499 147.481 15 220-.998.068-15-220.019-4.5-147.544 5.992-103.87zm341.561 196.626l.892-.452 172.46 340.345-.892.452-172.46-340.345zm151.617 265.063l-118.737-139.618 64.03 161.144-66.07-163.569-90.806-107.963-16.617-24.221-91.772-57.565-70.473-53.15-13.585 8.152L949.382 184 735.358 74.99l-50.894-4.919-18.814 5.907-168.22-23.982 186.928 17.06 153.44-48.172 34.036 88.094 194.818-12.988 101.637 76.654 61.357-36.814 101.529 147.995 73.23 45.932 34.36 86.474 119.906 142.56zm-329.317-421.618l-60.204 36.122 70.116 52.881 89.784 56.317-99.696-145.32zM519.297 54.109l146.161 20.88 16.453-5.165-162.614-15.715zm917.428 359.696l-33.13-83.375-71-44.536 15.288 22.284 88.842 105.627zM1066.348 97.011l-195.182 13.012-33.963-87.906L686.91 69.302l48.637 4.7L949.618 183l204.741-2 13.006-7.803-101.017-76.187zM383.953 464.29l73 157-.906.422-73.026-157.067-46-153-9.031-113.253 51.198-93.363 111.133-11.013L592.214 23.09 490.68 94.985l-110.867 10.987-50.802 92.637 8.984 112.798 45.96 152.882zm-55.127-265.404L178.865 364.842 1.123 553.724l82.428-169.943 103.11-130.15 75.562-69.547 117.068-78.038L498.358 51.02l94.09-28.019 199-21 250.135 42.005 188.22 91.095 25.032 19.027 154 139 116.087 182.102 59.118 174.223-59.994-173.736-115.93-181.892-153.918-138.928-24.915-18.948-187.936-90.97L791.485 3.005 592.643 23.98 498.71 51.954l-118.932 54.962-116.939 77.952-75.447 69.442L84.426 384.267 4.878 548.275l173.251-184.11 150-166L490.957 94.616l4.034 81.788 24.993 128.967 40.992 154.974 54 167-54.959-166.718-41.007-155.033L494 176.525l-3.958-80.142-161.217 102.502zm-94.747 140.238l177.536 41.89 312.151 196.064-312.462-195.11-178.383-42.09 29.13-155.698L497.254 51.065 262.949 184.82l-28.87 154.302zM84.645 563.689l138.375-35.582 9.884-185.819L84.644 563.69zm138.375-35.582l.355-.091-.374.457.02-.366zm11.076-189.395l-10.116 190.18-141.625 36.419 151.74-226.6zm54.875 373.62l-.942.337-66.122-184.341 189.141-147.11 42.339-202.38 43.64-127.5.946.324-43.624 127.44-42.397 202.68-188.859 146.89 65.878 183.66zM490.994 94.58l-.988-.16 7-43 .988.16-7 43zM83.598 383.99l-.196-.98 95-19 .196.98-95 19zm103.614-129.1l46.727 85.37-.878.48-47.273-86.369 142.531-55.337.362.932-141.469 54.925zM490.554 94.998L667.772 74.75l-2.02 1.182-170.925 99.946-157 136-104.12 28.077-54.632 24.833 29.9 135.544 13.972 27.944-14.894-27.552-30.128-136.512 55.445-25.195 103.89-27.97 156.988-135.979 168.98-98.818-172.674 18.747zm174.865-19.004l206.523 33.073L892 247.476l8 170.015 3 161-.999.018-3-160.985-7.995-169.952-19.947-137.638-205.64-33.94zm742.954 217.023l.254.968-61.014 16.003L1183.6 347.99l-251.926 51.978-340 127-.35-.936L931.399 399.01l251.988-51.997 163.986-37.997 61-16zM949.993 182.6l-16.998 216.972-30 206 29.007-206.111 17-217 40.183-120.598 264.478 91.164-263.848-89.89L949.994 182.6zm203.213-.695l-164-119 164.57 118.178L1347.952 309.2l49.039 265.21-49.945-264.61-193.84-127.895zm-92.775 20.09L872.28 109.95l188.367 91.067 179.155 25.021 106.123 173.202 40.067 237.178-40.97-236.738-105.826-172.716-178.766-24.968zm377.402 372.132l-.666.746-254.13-227.116-29.03-166.171.986-.172 28.97 165.829 253.87 226.884zM677.266 249.794l272.336-67.835 233.405 165.287L1176 601.514l5.993-253.76L949.398 183.04l-273.664 68.165L735.026 75.34l-57.76 174.454zM454.46 180.012l-125.883 19.982 125.96-21.006 223.114 71.036L931.826 399.12l203 175-203.579-174.19-253.952-148.97-222.834-70.948zm444.516 231.564l.528.848-252.24 157-.529-.848 252.241-157zm341.013-185.978l-41.305 90.703-138.503-114.416L1198.315 314.7l40.706-89.354 14.532-72.449 151.332 176.285 121 146-121.764-145.355-149.99-174.722-14.14 70.494zm-43.213 88.91l.972.558 148.078 85.056 194 168-.654.756-193.922-167.944-147.028-84.442 31.766 148.904-2.99 161.113 2-160.96-32.222-151.04zm32.397 151.37l.652-.757 158 136-.652.758-158-136zm.146-.845l.36.934-153.236 59.09L898.998 412.01l-188.593-68.02-190.945-36.988-181.69 5.99-128.93 188.896-126.417 63.715 95.585-201.233 7.993-110.906L179 364.536 84.577 563.397l123.583-62.285 129.07-189.103L519.484 306l191.186 37.03 188.72 68.058 177.166 112.855 152.764-58.91zm-31.941-150.018l.242.97-133.788 33.481-131.225 51-.362-.932 131.285-51.019 133.848-33.5zM411.72 381.949l-.442-.898L677.19 250.102l-53.333 264.594-.98-.198 52.931-262.6-264.088 130.05zm298.548-39.893l181.849-94.5 167.225-47.037.27.962-167.08 46.986-181.723 94.425L560.68 461.996l-177.081 3.994-175 35-.197-.98L383.488 465l176.832-3.996 149.95-118.948zM411.642 384.98l-39.649 236.604-.986-.165 39.669-236.725a3 3 0 1 1 .966.286zM266 185a3 3 0 1 1-6 0 3 3 0 0 1 6 0zM87 384a3 3 0 1 1-6 0 3 3 0 0 1 6 0zM6 551a3 3 0 1 1-6 0 3 3 0 0 1 6 0zm176-186a3 3 0 1 1-6 0 3 3 0 0 1 6 0zm30 136a3 3 0 1 1-6 0 3 3 0 0 1 6 0zm25-161a3 3 0 1 1-6 0 3 3 0 0 1 6 0zm286-34a3 3 0 1 1-6 0 3 3 0 0 1 6 0zm166-123a3 3 0 1 1-6 0 3 3 0 0 1 6 0zM564 461a3 3 0 1 1-6 0 3 3 0 0 1 6 0zm499-260a3 3 0 1 1-6 0 3 3 0 0 1 6 0zm6-104a3 3 0 1 1-6 0 3 3 0 0 1 6 0zm-77-34a3 3 0 1 1-6 0 3 3 0 0 1 6 0zm52-18a3 3 0 1 1-6 0 3 3 0 0 1 6 0zm188 91a3 3 0 1 1-6 0 3 3 0 0 1 6 0zm25 18a3 3 0 1 1-6 0 3 3 0 0 1 6 0zm-15 72a3 3 0 1 1-6 0 3 3 0 0 1 6 0zm-41 90a3 3 0 1 1-6 0 3 3 0 0 1 6 0zm-15 31a3 3 0 1 1-6 0 3 3 0 0 1 6 0zm-119 2a3 3 0 1 1-6 0 3 3 0 0 1 6 0zm166 117a3 3 0 1 1-6 0 3 3 0 0 1 6 0zm115-66a3 3 0 1 1-6 0 3 3 0 0 1 6 0zm59-70a3 3 0 1 1-6 0 3 3 0 0 1 6 0zm4-36a3 3 0 1 1-6 0 3 3 0 0 1 6 0zm117 182a3 3 0 1 1-6 0 3 3 0 0 1 6 0zM714 343a3 3 0 1 1-6 0 3 3 0 0 1 6 0zm189 69a3 3 0 1 1-6 0 3 3 0 0 1 6 0zm177 112a3 3 0 1 1-6 0 3 3 0 0 1 6 0zM936 400a4 4 0 1 1-8 0 4 4 0 0 1 8 0zm17-217a4 4 0 1 1-8 0 4 4 0 0 1 8 0zm-272 68a4 4 0 1 1-8 0 4 4 0 0 1 8 0zm-223-72a4 4 0 1 1-8 0 4 4 0 0 1 8 0zM227 529a4 4 0 1 1-8 0 4 4 0 0 1 8 0zM87 565a4 4 0 1 1-8 0 4 4 0 0 1 8 0zm1071-384a4 4 0 1 1-8 0 4 4 0 0 1 8 0zm193 128a4 4 0 1 1-8 0 4 4 0 0 1 8 0zm-456-61a3 3 0 1 1-6 0 3 3 0 0 1 6 0zM387 465a3 3 0 1 1-6 0 3 3 0 0 1 6 0zM190 254a3 3 0 1 1-6 0 3 3 0 0 1 6 0zm142-55a3 3 0 1 1-6 0 3 3 0 0 1 6 0zm51-93a3 3 0 1 1-6 0 3 3 0 0 1 6 0zm111-11a3 3 0 1 1-6 0 3 3 0 0 1 6 0zm8-43a3 3 0 1 1-6 0 3 3 0 0 1 6 0zm94-28a3 3 0 1 1-6 0 3 3 0 0 1 6 0zm73 52a3 3 0 1 1-6 0 3 3 0 0 1 6 0zm70-1a3 3 0 1 1-6 0 3 3 0 0 1 6 0zm136 34a3 3 0 1 1-6 0 3 3 0 0 1 6 0zM795 3a3 3 0 1 1-6 0 3 3 0 0 1 6 0zm46 19a3 3 0 1 1-6 0 3 3 0 0 1 6 0zM498 176a3 3 0 1 1-6 0 3 3 0 0 1 6 0zM341 312a3 3 0 1 1-6 0 3 3 0 0 1 6 0z" transform="translate(-73)"/></svg>