<svg xmlns="http://www.w3.org/2000/svg" width="64" height="64"><defs><linearGradient id="a" x1="50%" x2="50%" y1="0%" y2="100%"><stop offset="0%" stop-color="#E84956"/><stop offset="100%" stop-color="#E8A53E"/></linearGradient></defs><g fill="none" fill-rule="evenodd"><circle cx="32" cy="32" r="32" fill="url(#a)"/><path fill="#FFF" d="M24.162 20L18 27.93 32 44l14-16.07L39.838 20H24.162zm10.923 1.65h3.855l4.216 5.425h-5.752l-2.319-5.425zm-5.379 0h4.588l2.319 5.425h-9.226l2.319-5.425zm-4.646 0h3.855l-2.32 5.425h-5.751l4.216-5.425zm12.39 7.075h5.581l-9.556 10.97 3.975-10.97zM31.854 41.22l-4.528-12.495h9.348L32.146 41.22l-.146.168-.146-.168zM20.969 28.725h5.58l3.976 10.97-9.556-10.97z"/></g></svg>