<svg xmlns="http://www.w3.org/2000/svg" width="564" height="523"><defs><linearGradient id="a" x1="175.867%" x2="50%" y1="-122.983%" y2="64.183%"><stop offset="0%" stop-color="#D0021B"/><stop offset="100%" stop-color="#FE8CAA" stop-opacity="0"/></linearGradient><linearGradient id="b" x1="-77.237%" x2="83.107%" y1="147.694%" y2="42.494%"><stop offset="0%" stop-color="#D0021B"/><stop offset="100%" stop-color="#FE8CAA" stop-opacity="0"/></linearGradient><linearGradient id="c" x1="-92.109%" y1="55.108%" y2="55.108%"><stop offset="0%" stop-color="#D0021B"/><stop offset="100%" stop-color="#FE8CAA" stop-opacity="0"/></linearGradient></defs><g fill="none" fill-rule="evenodd"><path fill="url(#a)" d="M534.023 220.989C534.023 343.04 435.085 442 313.01 442 190.96 442 92 343.04 92 220.989 92 98.937 190.96 0 313.011 0c122.074 0 221.012 98.937 221.012 220.989z"/><path fill="url(#b)" d="M315.65 343.809c0 87.157-70.652 157.824-157.825 157.824C70.667 501.633 0 430.966 0 343.81 0 256.65 70.667 186 157.825 186c87.173 0 157.824 70.651 157.824 157.809z"/><path fill="url(#c)" d="M63.8 56.4c0 9.61-7.79 17.4-17.4 17.4S29 66.01 29 56.4 36.79 39 46.4 39s17.4 7.79 17.4 17.4zM564 511.5c0 6.351-5.149 11.5-11.5 11.5s-11.5-5.149-11.5-11.5 5.149-11.5 11.5-11.5 11.5 5.149 11.5 11.5z"/></g></svg>