<svg xmlns="http://www.w3.org/2000/svg" width="965" height="575"><defs><linearGradient id="a" x1="11.124%" x2="82.531%" y1="82.005%" y2="57.772%"><stop offset="0%" stop-color="#ACF4FC"/><stop offset="100%" stop-color="#FFF"/></linearGradient><linearGradient id="b" x1="100%" x2="28.467%" y1="0%" y2="74.118%"><stop offset="0%" stop-color="#2380F5"/><stop offset="100%" stop-color="#2393F5" stop-opacity="0"/></linearGradient></defs><g fill="none" fill-rule="evenodd"><path stroke="#ACB4E6" stroke-width="13" d="M1039.095 260.839c47.759 29.057 76.931 67.877 76.931 110.516 0 90.06-130.119 163.065-290.63 163.065-160.508 0-290.627-73.005-290.627-163.065 0-3.917.246-7.802.731-11.652v-.091c10.8-96.698-81.426-154.224-81.426-154.224l.002.013c-22.105-16.921-35.235-38.077-35.235-61.026 0-55.524 76.863-100.537 171.68-100.537 44.392 0 84.85 9.867 115.326 26.061h-.003l333.243 190.95"/><path fill="#3E8BE3" d="M1039.095 245.817c47.759 29.056 76.931 67.875 76.931 110.516 0 90.058-130.119 163.065-290.63 163.065-160.508 0-290.627-73.007-290.627-163.065 0-3.918.246-7.803.731-11.654v-.09c10.8-96.698-81.426-154.224-81.426-154.224l.002.012c-22.105-16.921-35.235-38.075-35.235-61.025 0-55.525 76.863-100.536 171.68-100.536 44.392 0 84.85 9.866 115.326 26.06h-.003l333.243 190.95"/><path stroke="#FFF" stroke-width="13" d="M1039.095 245.817c47.759 29.056 76.931 67.875 76.931 110.516 0 90.058-130.119 163.065-290.63 163.065-160.508 0-290.627-73.007-290.627-163.065 0-3.918.246-7.803.731-11.654v-.09c10.8-96.698-81.426-154.224-81.426-154.224l.002.012c-22.105-16.921-35.235-38.075-35.235-61.025 0-55.525 76.863-100.536 171.68-100.536 44.392 0 84.85 9.866 115.326 26.06h-.003l333.243 190.95"/><path fill="#DFE9F9" d="M649.82 385.231c-5.863 0-11.115-1.43-14.75-3.69 3.635-2.26 8.887-3.69 14.75-3.69 5.86 0 11.114 1.43 14.747 3.69-3.633 2.26-8.886 3.69-14.748 3.69m0-45.53c-44.97 0-81.428 20.385-81.428 45.53 0 25.147 36.457 45.53 81.428 45.53 44.97 0 81.428-20.383 81.428-45.53 0-25.145-36.457-45.53-81.428-45.53"/><path fill="#BCC8DC" d="M648.944 362.467c-10.639 0-19.263 5.172-19.263 11.55 0 2.97 1.882 5.666 4.948 7.712 3.527-2.353 8.626-3.841 14.315-3.841 5.69 0 10.789 1.488 14.316 3.841 3.065-2.046 4.946-4.742 4.946-7.711 0-6.379-8.623-11.551-19.262-11.551"/><path fill="#FFF" d="M704.98 373.582c-6.203-2.534-14.775-4.11-24.273-4.11-.67 0-1.335.01-1.994.025v5.684a59.097 59.097 0 0 1 10.45-.912c5.872 0 11.309.817 15.817 2.207v-2.894zm5.253 5.682c2.158 1.211 3.946 2.636 5.254 4.216-.641-2.58-2.503-4.96-5.254-7.004v2.788z"/><path fill="#5235ED" d="M618.299 171.593c-5.862 0-11.115-1.43-14.749-3.69 3.634-2.26 8.887-3.69 14.749-3.69 5.861 0 11.114 1.43 14.747 3.69-3.633 2.26-8.886 3.69-14.747 3.69m0-45.53c-44.971 0-81.428 20.385-81.428 45.53s36.457 45.53 81.428 45.53c44.97 0 81.427-20.385 81.427-45.53s-36.457-45.53-81.427-45.53"/><path fill="#4328D1" d="M617.424 150.58c-10.64 0-19.263 5.172-19.263 11.552 0 2.968 1.882 5.664 4.947 7.71 3.528-2.353 8.626-3.842 14.316-3.842 5.69 0 10.788 1.489 14.314 3.842 3.067-2.046 4.948-4.742 4.948-7.71 0-6.38-8.623-11.553-19.262-11.553"/><path fill="#FFF" d="M675.21 163.445c-6.203-2.532-14.776-4.11-24.272-4.11-.67 0-1.335.01-1.995.026v5.685a59.077 59.077 0 0 1 10.45-.914c5.873 0 11.31.817 15.818 2.208v-2.895zm3.503 5.683c2.158 1.211 3.945 2.636 5.253 4.216-.64-2.58-2.502-4.96-5.253-7.004v2.788z"/><path stroke="#4328D1" stroke-linecap="round" stroke-linejoin="round" d="M617.423 210.118c-31.84 0-58.848-10.278-68.294-24.516m127.833 7.005c-9.902 7.82-25.494 13.583-43.779 15.76"/><path fill="#A3EDED" d="M974.654 316.927c0-4.004-2.16-7.494-5.375-9.404v-.004l-.224-.133c-.057-.031-.112-.068-.17-.099L779.572 197.053h-.002a15.69 15.69 0 0 0-8.822-2.695c-2.8 0-5.426.737-7.705 2.018h-.014l-85.53 50.378c-.131.071-.257.15-.385.227l-.157.091v.003c-3.144 1.924-5.249 5.376-5.249 9.33 0 3.951 2.105 7.404 5.249 9.327h.001c.229.14.459.275.698.397l194.61 110.677c1.595.9 3.43 1.42 5.392 1.42 1.831 0 3.555-.453 5.071-1.246l.01.002.036-.023c.23-.12.445-.255.663-.39l84.559-49.573v-.001c3.913-1.671 6.657-5.548 6.657-10.068"/><path stroke="#2CD5D9" stroke-linecap="round" stroke-linejoin="round" d="M836.315 336.2l26.267 15.76m-115.575-66.543l68.294 38.525"/><path fill="#3E8BE3" d="M876.59 318.688c0 1.936-2.743 3.502-6.129 3.502-3.384 0-6.128-1.566-6.128-3.502 0-1.934 2.744-3.502 6.128-3.502 3.386 0 6.13 1.568 6.13 3.502m35.023-19.262c0 1.935-2.744 3.502-6.13 3.502-3.384 0-6.128-1.567-6.128-3.502 0-1.934 2.744-3.503 6.128-3.503 3.386 0 6.13 1.569 6.13 3.503m-96.313-15.76c0 1.935-2.743 3.502-6.13 3.502-3.385 0-6.128-1.567-6.128-3.502 0-1.934 2.743-3.503 6.128-3.503 3.387 0 6.13 1.569 6.13 3.503m35.023-19.263c0 1.935-2.743 3.502-6.13 3.502-3.385 0-6.128-1.567-6.128-3.502 0-1.934 2.743-3.502 6.129-3.502 3.386 0 6.129 1.568 6.129 3.502m-98.064-15.76c0 1.935-2.744 3.502-6.13 3.502-3.384 0-6.128-1.567-6.128-3.502 0-1.934 2.744-3.502 6.129-3.502 3.385 0 6.13 1.568 6.13 3.502m36.773-19.263c0 1.936-2.744 3.503-6.13 3.503-3.384 0-6.128-1.567-6.128-3.503 0-1.933 2.744-3.502 6.128-3.502 3.386 0 6.13 1.569 6.13 3.502"/><path stroke="#2CD5D9" stroke-linecap="round" stroke-linejoin="round" d="M690.97 253.896l38.526 22.765m187.371 63.041l-29.77 17.511m75.299-45.529l-17.51 10.506"/><path stroke="#3EBBE3" stroke-linecap="round" stroke-linejoin="round" d="M699.726 287.168L673.72 272.46l.008-.002c-5.375-2.9-9.024-8.555-9.024-15.056 0-2.498.536-4.868 1.505-7.008m.246 22.765c-4.303-4.086-7.005-9.97-7.005-16.512 0-1.542.15-3.049.437-4.502"/><path fill="#F4CDAA" d="M740.712 222.542s7.156 5.136 11.777 2.663c4.622-2.474 6.235-7.14 4.085-11.639-2.149-4.496-6.395-8.937-8.6-9.78-2.202-.844-6.34-1.631-7.951 2.529-1.614 4.16-3.297 13.06.689 16.227"/><path fill="#F4CDAA" d="M751.362 223.536s3.496 4.435 0 6.563c-3.495 2.129-17.247 2.117-22.425-.805-5.178-2.92-5.754-6.293-3.572-6.725 2.183-.43 9.361-2.089 13.93-4l-.753-4.808s-11.034-.97-20.32 2.184c-9.287 3.156-1.787 17.88 1.428 19.831 3.216 1.95 10.716 5.853 25.18 7.982 0 0 27.324 18.803 40.36 25.898l26.61-17.206s-22.968-26-31.753-32.335c-8.785-6.336-11.82.76-15.572 1.47-3.75.71-6.428-.533-8.036-3.016-1.606-2.483-5.076 4.967-5.076 4.967m49.479 72.729l18.196 22.624s.976 5.097 0 6.672c-.976 1.576-16.021 34.613-19.13 37.706 0 0-1.365 2.867 1.17 6.02 2.54 3.151 6.64 11.03 6.64 11.03s1.755 2.954 3.708 3.152c1.952.196 2.29-2.168 1.534-4.137-.754-1.97-4.983-13.225-3.454-16.065 1.53-2.844 18.9-32.026 21.243-36.146 2.344-4.121 4.296-9.199 3.71-11.88-.586-2.68-10.827-27.66-10.827-27.66s-24.2-13.125-22.79 8.684"/><path fill="#291C3D" d="M740.793 220.625s-7.3-1.69-7.739-5.068c-.44-3.378 1.701-10.982 6.532-14.255 4.83-3.274 10.759-1.586 10.923 3.273 0 0-6.423.475-7.96-.054 0 0 1.208 10.244-.108 11.617 0 0-2.855.369-1.648 4.487"/><path fill="#F4CDAA" d="M827.56 283.005l87.212 42.01s6.408 2.209 7.61-1.35c1.202-3.556 4.206-21.292 4.808-23.307.6-2.016-.201-1.684-3.405-1.548-3.205.137-5.86-.298-6.135 4.253-.275 4.55.527 13.262-1.676 13.137-2.203-.123-67.589-45.474-67.589-45.474s-20.826-6.437-20.826 12.279"/><path fill="#140672" d="M785.532 269.274s12.222 24.362 17.16 30.152c0 0 .665-8.735 7.335-11.784 6.673-3.046 14.128 1.048 14.128 1.048s-1.51-5.94 3.931-4.815c0 0 1.209-17.36 20.455-12.08 0 0 .711-1.342-4.589-5.146-5.303-3.801-32.627-16.255-32.627-16.255l-25.793 18.88z"/><path fill="#F4CDAA" d="M776.776 217.825s8.891 3.872 20.438 12.79c0 0 6.948 4.459 8.787 2.075 1.839-2.386 11.957-23.44 13.079-25.825 1.125-2.385 6.292-6.663 11.081-7.053 4.786-.39 9.543-.4 11.135 1.718 1.595 2.12-4.043-.543-11.135.91 0 0-1.05.162.65.53 1.608.35 3.268-.043 3.746 1.105.63 1.508-1.469 1.93-3.615 2.034-2.147.105-2.719 1.067-3.56 1.793-.842.727-.404 2.697-3.841 3.318 0 0-2.927 10.58-3.846 17.114-.92 6.533-5.008 16.697-9.811 16.8-4.803.104-12.015-1.14-12.015-1.14l-21.093-26.17z"/><path fill="#FFF" d="M834.564 213.62c0 .966-1.96 1.751-4.377 1.751-2.418 0-4.379-.785-4.379-1.752 0-.965 1.961-1.75 4.38-1.75 2.416 0 4.376.785 4.376 1.75"/><path fill="#DFE9F9" d="M834.564 213.62c0 .966-1.96 1.751-4.377 1.751-2.418 0-4.379-.785-4.379-1.75 0-.967 1.961-1.752 4.38-1.752 2.416 0 4.376.785 4.376 1.751"/><path stroke="#3EBBE3" stroke-linecap="round" stroke-linejoin="round" d="M796.741 358.964c-.454-.593-.702-1.235-.702-1.905 0-2.286 2.883-4.25 7.004-5.1"/><path fill="#FFF" d="M839.817 193.082c0-2.198-4.311-3.978-9.63-3.978-5.32 0-9.632 1.78-9.632 3.978 0 .637.373 1.239 1.02 1.772l-.14.015 7.662 7.213v8.866h.019c-.003.026-.019.045-.019.07 0 .47.488.851 1.09.851.6 0 1.087-.381 1.087-.85 0-.026-.015-.045-.018-.07h.018v-8.867l7.663-7.213-.139-.015c.647-.533 1.02-1.135 1.02-1.772"/><path stroke="#3EBBE3" stroke-linecap="round" stroke-linejoin="round" d="M820.058 353.71c1.418.93 2.248 2.061 2.248 3.28 0 2.563-3.678 4.736-8.756 5.477m-16.895 5.253c-6.688-2.202-11.123-6.063-11.123-10.461 0-6.322 9.168-11.54 21.014-12.304m26.267 12.258c0 5.91-7.448 10.872-17.512 12.258"/><path fill="#2CD3D9" d="M830.478 194.358h-8.172l7.102 7.004h1.556l7.102-7.004z"/><path fill="#DFE9F9" d="M838.066 193.482c0 1.45-3.528 2.627-7.88 2.627s-7.88-1.177-7.88-2.627c0-1.451 3.528-2.627 7.88-2.627s7.88 1.176 7.88 2.627"/><path stroke="#3661C9" d="M831.061 201.362l2.88-7.518 5.876-6.49m-6.397 6.56l7.004-7.004"/><path fill="#F4CDAA" d="M827.56 203.276s8.047-.626 9.999.578c1.955 1.205-2.097.674-6.094.977-4 .303-3.906-1.555-3.906-1.555"/><path fill="#F4CDAA" d="M825.808 205.027s8.048-.625 10 .578c1.955 1.205-2.097.674-6.096.977-3.998.303-3.904-1.555-3.904-1.555m.281 1.589s8.18 1.152 9.501 1.063c1.32-.088 1.018 1.33-2.432 1.33s-6.557 1.818-8.5.798c-1.939-1.019 1.43-3.191 1.43-3.191"/><path stroke="#BCC8DC" stroke-linecap="round" stroke-linejoin="round" d="M648.943 420.254c-31.84 0-58.848-10.278-68.294-24.516m127.833 8.756c-9.902 7.82-25.493 13.583-43.778 15.76"/><path stroke="#3EBBE3" d="M648.943 437.765c8.364 0 16.456-.708 24.114-2.031 27.137-4.684 48.856-17.08 58.19-32.991m-43.779 35.022c9.82-2.608 18.7-6.18 26.267-10.507M617.423 227.63c8.364 0 16.456-.709 24.114-2.032 27.138-4.685 48.857-17.08 58.19-32.991m-43.779 33.271c9.82-2.608 18.699-6.18 26.267-10.507"/><path fill="#72AAE5" d="M483.276 383.884l-46.907 26.792V57.638l46.907-30.834zM160.67 196.326l-46.906 26.722V169.56l46.907-30.753zm107.217 62.145l-46.907 26.8V154.335l46.907-30.845zm106.259 62.249l-46.907 26.775V116.971l46.907-30.815z"/><path fill="url(#a)" d="M413.156 28.17l50-28.17 48.035 26.912-46.635 30.923-51.4-29.665zM88.07 140.733l50.002-28.98 48.034 27.723-46.635 30.921-51.4-29.664zm107.406-15.267l50.001-28.98 48.036 27.721-46.636 30.923-51.401-29.664zm108.262-37.843l50.001-28.98 48.034 27.72-46.634 30.924-51.401-29.664z" transform="translate(-26)"/><path fill="#D4FCFF" d="M113.764 223.048l-51.694-29.66v-53.624l51.694 29.608zm107.216 62.223l-51.694-29.7V124.448l51.694 29.645zm218.261 125.405l-51.693-29.658V27.761l51.693 29.603zm-110.088-63.181l-51.693-29.651V87.114l51.693 29.595z"/><path d="M139.64 29.858L88.244.199 0 51.778l51.396 29.603zm107.396 62.087L195.64 62.287 69.82 135.208l51.395 29.605zm217.659 125.237l-51.395-29.66-362.19 209.27 51.397 29.605zm-160.804-92.808l-178.65 103.693 51.395 29.605 178.651-103.638" fill="url(#b)" opacity=".344" transform="translate(-26 193.372)"/></g></svg>