<svg xmlns="http://www.w3.org/2000/svg" width="64" height="64"><defs><linearGradient id="a" x1="50%" x2="50%" y1="0%" y2="100%"><stop offset="0%" stop-color="#1CA973"/><stop offset="100%" stop-color="#6AE585"/></linearGradient></defs><g fill="none" fill-rule="evenodd"><circle cx="32" cy="32" r="32" fill="url(#a)"/><path fill="#FFF" d="M43.876 33.111l-.778.001c.076-.536.124-1.08.124-1.635 0-.662-.069-1.307-.177-1.939.21.17.47.28.763.293.024.005.07.036.07.002l-.002 3.278zm-24.244-3.278a1.3 1.3 0 0 0 .824-.306 11.46 11.46 0 0 0-.178 1.95c0 .549.043 1.095.12 1.635h-.776l.01-3.279zm24.303-2.62c1.414.06 2.565 1.236 2.565 2.62v3.278a2.625 2.625 0 0 1-2.622 2.622l-1.482.002a11.45 11.45 0 0 1-7.556 6.79 2.614 2.614 0 0 1-2.107 1.076h-1.966a2.626 2.626 0 0 1-2.623-2.623 2.626 2.626 0 0 1 2.623-2.622h1.966c.981 0 1.829.548 2.278 1.349a8.847 8.847 0 0 0 5.589-8.228c0-4.882-3.97-8.855-8.85-8.855-4.88 0-8.85 3.973-8.85 8.855 0 .722.087 1.44.258 2.136.112.452-.029.905-.329 1.219a1.307 1.307 0 0 1-1.24.904h-.002l-1.967-.003A2.624 2.624 0 0 1 17 33.111v-3.278c0-.712.296-1.406.812-1.903a2.553 2.553 0 0 1 1.86-.718c.52.02.953.341 1.147.787C22.296 23.366 26.636 20 31.75 20c5.11 0 9.447 3.361 10.926 7.988a1.31 1.31 0 0 1 1.259-.776zM29.783 30.49a1.312 1.312 0 1 1-2.623 0 1.312 1.312 0 0 1 2.623 0zm6.556 0a1.312 1.312 0 1 1-2.623 0 1.312 1.312 0 0 1 2.623 0z"/></g></svg>