<svg xmlns="http://www.w3.org/2000/svg" width="64" height="64"><defs><linearGradient id="a" x1="50%" x2="50%" y1="0%" y2="100%"><stop offset="0%" stop-color="#7045E9"/><stop offset="100%" stop-color="#B951F8"/></linearGradient></defs><g fill="none" fill-rule="evenodd"><circle cx="32" cy="32" r="32" fill="url(#a)"/><path fill="#FFF" d="M32 23.613a2.888 2.888 0 1 1 0 5.775 2.888 2.888 0 0 1 0-5.776zm0 12.374c4.084 0 8.388 2.008 8.388 2.888v1.513H23.613v-1.513c0-.88 4.303-2.888 8.387-2.888zM32 21a5.498 5.498 0 0 0-5.5 5.5c0 3.04 2.461 5.5 5.5 5.5s5.5-2.46 5.5-5.5c0-3.039-2.461-5.5-5.5-5.5zm0 12.375c-3.671 0-11 1.843-11 5.5V43h22v-4.125c0-3.657-7.329-5.5-11-5.5z"/></g></svg>