<svg xmlns="http://www.w3.org/2000/svg" width="44" height="31" viewBox="0 0 44 31">
    <path fill="#FFF" fill-rule="evenodd" d="M36.458 14.446c-.86 0-1.556-.708-1.556-1.582 0-.874.696-1.582 1.556-1.582.86 0 1.556.708 1.556 1.582 0 .874-.697 1.582-1.556 1.582zM33 10.93c-.86 0-1.556-.708-1.556-1.582 0-.874.696-1.583 1.556-1.583.86 0 1.556.709 1.556 1.583S33.859 10.93 33 10.93zm0 7.032c-.86 0-1.556-.708-1.556-1.582 0-.874.696-1.582 1.556-1.582.86 0 1.556.708 1.556 1.582 0 .874-.697 1.582-1.556 1.582zm-3.458-3.516c-.86 0-1.556-.708-1.556-1.582 0-.874.696-1.582 1.556-1.582.86 0 1.556.708 1.556 1.582 0 .874-.696 1.582-1.556 1.582zm-2.75 5.528c0 .22-.176.399-.392.399h-3.257a.397.397 0 0 1-.392-.4v-.375c0-.22.176-.4.392-.4H26.4c.216 0 .393.18.393.4v.376zm-5.543 0c0 .22-.176.399-.393.399H17.6a.397.397 0 0 1-.393-.4v-.375c0-.22.177-.4.393-.4h3.256c.217 0 .393.18.393.4v.376zm-5.864-6.193c0 .242-.195.44-.433.44h-2.617v2.662c0 .242-.195.44-.433.44h-1.804a.437.437 0 0 1-.433-.44v-2.662H7.047a.437.437 0 0 1-.432-.44v-1.834c0-.242.194-.44.432-.44h2.618V8.845c0-.242.195-.44.433-.44h1.804c.238 0 .433.198.433.44v2.662h2.617c.238 0 .433.198.433.44v1.834zm28.602 12.212h.006c0-11.347-3.742-20.872-3.742-20.872h-.004C39.36 2.167 36.494 0 33.087 0a7.738 7.738 0 0 0-3.69.93L29.391.93c-.02.013-.042.026-.061.04a7.604 7.604 0 0 0-.511.306C26.076 2.76 22 2.642 22 2.642s-4.077.118-6.82-1.367a7.685 7.685 0 0 0-.51-.307l-.062-.04-.005.003A7.737 7.737 0 0 0 10.913 0C7.506 0 4.64 2.167 3.753 5.121h-.005S.007 14.646.007 25.993h.005c-.004.084-.012.167-.012.251C0 28.871 2.094 31 4.677 31c1.234 0 2.354-.49 3.19-1.284h.005s2.348-2.063 4.427-3.824c2.079-1.761 5.544-2.818 9.701-2.818 4.157 0 7.622 1.057 9.7 2.818a385.52 385.52 0 0 1 4.427 3.824h.006A4.613 4.613 0 0 0 39.323 31C41.906 31 44 28.87 44 26.244c0-.084-.008-.167-.013-.25z"/>
</svg>
