<svg xmlns="http://www.w3.org/2000/svg" width="35" height="28" viewBox="0 0 35 28">
    <path fill="#FFF" fill-rule="evenodd" d="M27.408 16.941c.778 0 1.408-.634 1.408-1.415 0-.782-.63-1.415-1.408-1.415-.777 0-1.408.633-1.408 1.415 0 .781.63 1.415 1.408 1.415zm-6.873 0c.778 0 1.408-.634 1.408-1.415 0-.782-.63-1.415-1.408-1.415-.777 0-1.407.633-1.407 1.415 0 .781.63 1.415 1.407 1.415zm-3.933-8.2a1.66 1.66 0 0 0 1.656-1.665 1.66 1.66 0 0 0-1.656-1.665 1.66 1.66 0 0 0-1.656 1.665c0 .92.742 1.665 1.656 1.665zm-8.322 0a1.66 1.66 0 0 0 1.656-1.665A1.66 1.66 0 0 0 8.28 5.411a1.66 1.66 0 0 0-1.656 1.665c0 .92.742 1.665 1.656 1.665zm19.826 17.822a.73.73 0 0 0-.58-.067 12.154 12.154 0 0 1-3.534.518c-5.727 0-10.37-3.895-10.37-8.7 0-4.804 4.643-8.699 10.37-8.699 5.728 0 10.372 3.895 10.372 8.7 0 2.653-1.417 5.03-3.65 6.625a.533.533 0 0 0-.205.568l.488 1.873c.146.56-.143.781-.641.491l-2.25-1.31zM8.262 20.247a14.642 14.642 0 0 0 4.87.592 8.017 8.017 0 0 1-.422-2.566c0-5.241 5.107-9.49 11.407-9.49.22 0 .439.005.656.015C23.838 3.813 18.683 0 12.462 0 5.579 0 0 4.668 0 10.427c0 3.165 1.686 6.001 4.348 7.914.25.18.365.496.285.795l-.585 2.198c-.177.663.16.922.75.576l2.669-1.566c.24-.142.528-.177.795-.097z"/>
</svg>
