<svg xmlns="http://www.w3.org/2000/svg" width="25" height="20" viewBox="0 0 25 20">
    <path fill="#FFF" fill-rule="evenodd" d="M19.577 12.1c.556 0 1.006-.452 1.006-1.01s-.45-1.011-1.006-1.011c-.555 0-1.005.453-1.005 1.01 0 .56.45 1.012 1.005 1.012zm-4.909 0c.555 0 1.006-.452 1.006-1.01s-.45-1.011-1.006-1.011c-.555 0-1.005.453-1.005 1.01 0 .56.45 1.012 1.005 1.012zm-2.81-5.856c.654 0 1.184-.533 1.184-1.19 0-.656-.53-1.189-1.183-1.189-.654 0-1.183.533-1.183 1.19 0 .656.53 1.189 1.183 1.189zm-5.943 0c.653 0 1.182-.533 1.182-1.19 0-.656-.53-1.189-1.182-1.189-.654 0-1.183.533-1.183 1.19 0 .656.53 1.189 1.183 1.189zm14.16 12.73a.522.522 0 0 0-.414-.048c-.788.24-1.637.37-2.524.37-4.09 0-7.408-2.782-7.408-6.214 0-3.432 3.317-6.214 7.408-6.214 4.092 0 7.408 2.782 7.408 6.214 0 1.895-1.011 3.593-2.607 4.732a.38.38 0 0 0-.146.406l.349 1.338c.104.4-.102.558-.458.35l-1.607-.935zM5.902 14.461a10.459 10.459 0 0 0 3.48.423 5.726 5.726 0 0 1-.302-1.833c0-3.744 3.648-6.779 8.147-6.779.157 0 .314.004.469.011C17.027 2.724 13.345 0 8.9 0 3.985 0 0 3.334 0 7.448c0 2.26 1.204 4.287 3.106 5.653a.531.531 0 0 1 .204.568l-.419 1.57c-.126.473.115.658.536.411l1.907-1.119a.716.716 0 0 1 .567-.07z"/>
</svg>
