<svg xmlns="http://www.w3.org/2000/svg" width="28" height="28" viewBox="0 0 28 28">
    <path fill="#4A4A4A" fill-rule="nonzero" d="M19.992 19.03c.065.052-.074.096-.07.164-.115-.048.031-.125.07-.164zm-3.18-13.255c.313.153.507.732.327 1.192-.506.071-.291-.651-.584-.701-.322-.054-.273.557-.468.725-.362-.048-.273-.489-.186-.748.108-.324.501-.669.911-.468zm-3.974-.257c.934-.124.846 2.075.047 2.033-.81-.04-.853-1.925-.047-2.033zM26.49 15.64c.557 1.149.966 2.454.864 3.999-.04.633-.202 1.326-.513 1.752-.158.216-.388.417-.632.421-.409.007-.701-.48-.91-.795-.25-.373-.438-.733-.632-1.099-.252.26-.34.637-.468.959-.399 1.006-.955 1.883-1.66 2.595.66.382 1.275.647 1.847 1.098.352.278.818.677.702 1.333-.078.438-.455.807-.725.981-1.884 1.216-5.817 1.038-8.134.281-.45-.147-.902-.384-1.31-.444-.154-.023-.42-.012-.584-.024-.236-.016-.499-.061-.608-.047-.139.02-.259.162-.42.257-1.021.604-2.02.947-3.554 1.052-1.703.12-3.422-.022-4.744-.444-.702-.223-1.64-.68-1.73-1.496-.044-.395.065-.987.21-1.262.363-.688 1.182-.909 2.197-1.005-.037-.176-.28-.289-.444-.422-.964-.786-1.719-1.846-2.197-3.155-.077-.21-.106-.448-.234-.655-.225.165-.251.47-.397.701-.295.468-.766.962-1.24 1.193-.173.084-.432.187-.63.14-.385-.09-.472-.797-.515-1.285-.16-1.815.368-3.28.958-4.419.755-1.454 1.833-2.399 2.923-3.296-.305-.84.056-1.78.443-2.291.015-.384.052-.738.187-1.076.077-.186.246-.306.28-.467.038-.168-.015-.356 0-.561.173-2.276 1.574-4.333 2.83-5.587.744-.745 1.406-1.274 2.453-1.754.949-.433 2.155-.685 3.46-.818h1.705c4.182.395 6.839 2.252 8.089 5.588.192.512.332 1.033.468 1.59.133.55.117 1.222.303 1.8.113.348.404.66.561 1.028.32.745.426 1.795 0 2.524.631.887 1.256 1.987 1.801 3.11zm-1.754 10.194c.198-1.075-1.085-.862-1.916-.912.1-.352.59-.312.958-.397a2.173 2.173 0 0 0-1.566-.772c-1.598 1.394-3.462 2.522-6.102 2.876.76.634 2.42.892 4.045.957 1.597.064 3.313-.325 4.114-1.005.213-.18.418-.475.467-.747zm-1.402-5.354c.582-2.193-.3-4.096-1.192-5.4-2.642 1.793-6.907 3.188-10.964 2.126.024.434.068.912.071 1.426.003.512.103 1.087.023 1.52-.061.34-.358.685-.63.795-.405.165-1.033.157-1.544.118-.927-.072-1.719-.519-1.963-1.24-.093-.273-.074-.622-.095-.959-.062-1.071.042-2.066.188-3.015a10.78 10.78 0 0 0-1.426-.842c-.762.765-1.12 2.655-1.075 3.974.011.335.084.815.163 1.193.217 1.035.794 1.998 1.426 2.735a8.778 8.778 0 0 0 2.268 1.893c1.789 1.06 4.262 1.59 6.639 1.614a7.138 7.138 0 0 0 2.477-.444c.795-.286 1.555-.726 2.245-1.17a9.549 9.549 0 0 0 1.846-1.566c.61-.69 1.26-1.69 1.543-2.758zm-3.506-9.048c.19-.088.93-.406.912-.655-.01-.124-.394-.352-.585-.467-1.986-1.186-4.95-1.596-7.877-1.169-1.121.164-2.136.428-3.063.866-.293.138-1.126.556-1.098.864.01.12.199.266.304.328.455.267 1.192.424 1.706.538-.104-.287-.309-.47-.422-.748 1.053.729 2.281 1.516 3.904 1.66 2.43.213 4.275-.744 5.657-1.66-.132.331-.595.484-.678.771.537-.006.847-.146 1.24-.328zm-2.642-2.408c1.624-.581 1.675-4.377.024-5.002-.148-.056-.442-.059-.538-.047-.534.065-.902.444-1.122.819-.736 1.251-.484 3.834.911 4.254.262.079.554.038.725-.024zm-5.211-.023c1.182.118 1.752-1.357 1.729-2.524-.025-1.204-.596-2.47-1.567-2.478-.596-.006-1.018.404-1.262.842-.723 1.293-.413 4.01 1.1 4.16zM8.888 27.726c1.592-.08 3.238-.311 3.833-1.192-2.441-.29-4.637-1.022-6.288-2.151-.208-.142-.554-.452-.724-.49-.037-.01-.117.021-.187.022-.562.01-.945.228-1.38.492-.29.177-.648.45-.42.772.26-.014.417-.128.725-.095-.3.263-.82.467-.935.912-.1.384.27.71.49.865 1.102.78 3.005.96 4.886.865zm12.997-8.462c.02.266-.344.33-.49.164-.45.12-1.044.004-.936-.584.095-.514.817-.997 1.17-.515.151.21.099.58.208.866-.11-.077-.188-.185-.326-.234-.494.146.213.786.374.303zm-.678-.374c.105-.033.117.09.187.023-.096-.83-.817.264-.28.304-.01-.15.003-.276.093-.327zm.07.094c-.12-.019-.088.114-.093.21.08-.022.048-.154.093-.21zm.14.21c-.098-.033.002-.156.094-.141-.01.069-.076.08-.093.141zm-1.028.07c.013.251-.347.34-.492.164-.414.084-.93.049-.957-.397-.034-.552.707-1.157 1.121-.772.156.144.221.414.187.748.03.055.06.112.094.164-.164 0-.187-.225-.35-.21-.314.027-.099.496.14.49.164-.004.127-.113.257-.187zm-.678-.374c.091-.018.12.086.186.023-.037-.157-.092-.297-.233-.35-.197.067-.416.68-.047.631-.032-.114-.003-.254.094-.304zm0 .304c.008-.072.118-.202.024-.234-.044.072-.118.19-.024.234z"/>
</svg>
