<svg xmlns="http://www.w3.org/2000/svg" width="47" height="37" viewBox="0 0 47 37">
    <path fill="#FFF" fill-rule="evenodd" d="M4.212 35.15a1.318 1.318 0 0 1-1.326-1.309c0-.724.594-1.31 1.326-1.31.733 0 1.326.586 1.326 1.31 0 .724-.593 1.31-1.326 1.31m40.794-11.179c1.101 0 1.994.882 1.994 1.97a1.96 1.96 0 0 1-.855 1.617L32.8 34.924s-1.778 1.151-4.524 1.151H8.38c-.14.53-.625.925-1.204.925H1.248A1.244 1.244 0 0 1 0 35.767V24.98c0-.678.562-1.232 1.248-1.232h5.928c.574 0 1.055.389 1.2.912.314-.031.92-.135 1.825-.492 1.376-.544 3.679-.742 4.205-.742.525 0 2.578.099 4.254.742.92.352 2.658.47 4.041.504h8.33c1.2 0 2.17.96 2.17 2.143 0 1.09-.822 1.99-1.887 2.126l-10.336.984a.5.5 0 0 0-.502.496.5.5 0 0 0 .502.497s4.772-.198 8.459-.497c3.687-.298 5.186-1.126 5.186-1.126l9.425-5.08c.284-.155.61-.243.958-.243zm-10.634.282a4.231 4.231 0 0 0-1.231-1.06l3.665-1.375s1.802-.667 2.653.124l-5.087 2.311zm.892 2.561c0-.456-.076-.894-.213-1.306l5.059-2.479s1.775-.766 2.902 0l-7.784 4.305a4.14 4.14 0 0 0 .036-.52zM22.22 4.765l1.885 6.487 1.683-6.488h3.168l-2.35 5.96h1.833v1.566h-2.45l-.384.988h2.834v1.565h-2.9v2.766h-3.085v-2.766h-2.885v-1.565h2.834l-.383-.988h-2.45v-1.565h1.833l-2.35-5.96h3.167zm1.784 17.608c6.255 0 11.326-5.008 11.326-11.186C35.329 5.008 30.259 0 24.003 0c-6.255 0-11.325 5.008-11.325 11.187 0 6.178 5.07 11.186 11.325 11.186z"/>
</svg>
