<svg xmlns="http://www.w3.org/2000/svg" width="50" height="36"><path fill="#FFF" fill-rule="evenodd" d="M47.066 7.488l-2.105.807-.268-.718 1.985-.762 1.395-3.136-8.369 3.213c-.845.324-1.317 1.27-1.259 2.331-4.588 1.762-14.911 5.779-19.238 7.898l.649-.466a2.46 2.46 0 0 0-2.079-1.155c-1.361 0-2.469 1.121-2.469 2.5s1.108 2.5 2.47 2.5c1.361 0 2.469-1.121 2.469-2.5 0-.058-.007-.115-.012-.172a88.695 88.695 0 0 0 2.296-.733c.054.294.086.595.086.905 0 2.702-2.171 4.9-4.84 4.9-2.668 0-4.839-2.198-4.839-4.9 0-2.702 2.17-4.9 4.84-4.9a4.82 4.82 0 0 1 4.014 2.167l3.383-2.427c-1.623-2.378-4.333-3.94-7.398-3.94-4.955 0-8.987 4.082-8.987 9.1s4.032 9.1 8.987 9.1c4.956 0 8.988-4.082 8.988-9.1 0-.784-.1-1.544-.286-2.27.735-.262 1.485-.532 2.239-.806.27.98.417 2.01.417 3.076 0 6.341-5.095 11.5-11.358 11.5C11.515 29.5 6.42 24.341 6.42 18S11.515 6.5 17.777 6.5c3.862 0 7.278 1.963 9.33 4.954l5.24-3.757C29.128 3.047 23.797 0 17.776 0 7.975 0 0 8.075 0 18s7.975 18 17.777 18c9.803 0 17.778-8.075 17.778-18 0-1.85-.279-3.634-.793-5.315 1.68-.633 3.18-1.206 4.327-1.646.65.9 1.664 1.336 2.542.999L50 8.825l-2.934-1.337z"/></svg>