<svg width="50" height="35" xmlns="http://www.w3.org/2000/svg"><path d="M25.71 4.8C28.348 1.74 32.096 0 36.12 0 43.774 0 50 6.36 50 14.176c0 7.817-6.226 14.176-13.88 14.176a13.687 13.687 0 0 1-8.729-3.159l2.664-2.783a9.944 9.944 0 0 0 6.065 2.07c5.563 0 10.089-4.622 10.089-10.304 0-5.681-4.526-10.304-10.089-10.304a9.906 9.906 0 0 0-6.82 2.712l-.794.834c-.117.137-.232.278-.342.422l-.034-.026-.608.639 2.528 2.814 1.578-1.659.002.003a6.254 6.254 0 0 1 4.49-1.909c3.496 0 6.34 2.905 6.34 6.474 0 3.57-2.844 6.475-6.34 6.475a6.205 6.205 0 0 1-3.451-1.048l2.79-2.916h.001c.097.026.197.047.299.062.013.002.026.005.04.006.105.014.212.023.321.023 1.405 0 2.548-1.167 2.548-2.602 0-1.434-1.143-2.602-2.548-2.602-.09 0-.18.006-.269.015l-.068.01c-.066.01-.13.02-.195.033l-.066.018a2.512 2.512 0 0 0-.19.053l-.052.02c-.066.023-.13.049-.193.077l-.038.019a2.452 2.452 0 0 0-.198.104l-.022.014a2.714 2.714 0 0 0-.405.304c-.065.058-.126.12-.183.185l-.003-.002-.337.352-1.284 1.35-2.645 2.781-.637-.708-.136-.152a203252.61 203252.61 0 0 1-4.782-5.322l-.022-.025-2.087-2.323L25.71 4.8zm-7.373 30.016a3.498 3.498 0 0 1-1.065.184c-.583 0-1.004-.15-1.298-.44-.293-.28-.454-.706-.45-1.185.006-1.082.777-1.702 1.823-1.702.412 0 .73.083.886.16l-.152.59a1.742 1.742 0 0 0-.743-.14c-.602 0-1.056.348-1.056 1.054 0 .672.412 1.068 1.004 1.068.166 0 .298-.019.355-.048v-.682h-.493V33.1h1.189v1.716zm2.353-1.238l-.2-.69c-.056-.194-.113-.436-.16-.63h-.01c-.047.194-.094.44-.146.63l-.19.69h.706zm-.81.552l-.227.836h-.748l.975-3.259h.947l.99 3.259h-.777l-.246-.836h-.914zm5.297-.411a37.438 37.438 0 0 1-.028-1.34h-.014c-.1.416-.232.88-.355 1.262l-.388 1.272h-.563l-.342-1.257a15.792 15.792 0 0 1-.288-1.277h-.01c-.019.44-.033.943-.056 1.35l-.058 1.237h-.667l.204-3.258h.96l.313 1.087c.1.373.199.783.27 1.166h.014a28.1 28.1 0 0 1 .303-1.17l.34-1.083h.943l.175 3.258h-.706l-.047-1.247zm1.544 1.247v-3.258h.724v3.258h-.724zm1.586 0v-3.259h.842l.663 1.195c.19.343.379.75.521 1.116h.014c-.047-.43-.061-.87-.061-1.363v-.948h.663v3.26h-.758l-.682-1.258c-.19-.348-.397-.769-.554-1.15l-.014.004c.02.43.029.89.029 1.422v.981h-.663zm6.169-.15A3.498 3.498 0 0 1 33.41 35c-.582 0-1.003-.15-1.297-.44-.293-.28-.454-.706-.45-1.185.005-1.082.777-1.702 1.823-1.702.412 0 .729.083.885.16l-.151.59a1.742 1.742 0 0 0-.743-.14c-.602 0-1.056.348-1.056 1.054 0 .672.412 1.068 1.003 1.068.166 0 .299-.019.356-.048v-.682h-.493V33.1h1.189v1.716zM24.29 23.553c-2.638 3.06-6.386 4.8-10.41 4.8C6.227 28.353 0 21.993 0 14.177 0 6.359 6.227 0 13.88 0c3.205 0 6.276 1.132 8.729 3.16l-2.664 2.783a9.943 9.943 0 0 0-6.065-2.07C8.317 3.872 3.79 8.494 3.79 14.176c0 5.68 4.526 10.304 10.089 10.304a9.904 9.904 0 0 0 6.821-2.712l.793-.834c.117-.138.232-.278.343-.423l.033.027.608-.639-2.528-2.815-1.578 1.66-.002-.003a6.256 6.256 0 0 1-4.49 1.909c-3.496 0-6.34-2.905-6.34-6.474 0-3.57 2.844-6.475 6.34-6.475 1.272 0 2.457.386 3.451 1.048l-2.79 2.916h-.001a2.567 2.567 0 0 0-.299-.062l-.04-.007a2.437 2.437 0 0 0-.321-.023c-1.405 0-2.548 1.168-2.548 2.603 0 1.434 1.143 2.601 2.548 2.601.09 0 .18-.005.269-.014.023-.003.046-.008.068-.01.066-.01.13-.02.195-.034.022-.004.044-.011.066-.017.064-.016.127-.032.19-.053l.052-.02c.066-.023.13-.049.194-.077l.037-.019c.067-.032.134-.066.198-.105l.022-.013c.068-.042.135-.086.2-.134l.009-.007a2.53 2.53 0 0 0 .195-.161l.002-.002c.064-.059.125-.12.183-.185l.002.002.337-.352 1.284-1.35 2.645-2.782.637.709.137.152 4.378 4.874.403.448.022.025 2.087 2.323-3.402 3.577z" fill="#FFF" fill-rule="evenodd"/></svg>