<svg xmlns="http://www.w3.org/2000/svg" width="20" height="20" viewBox="0 0 20 20">
    <path fill="#FFF" fill-rule="nonzero" d="M14.281 13.593c.046.037-.053.068-.05.117-.082-.034.023-.09.05-.117zM12.01 4.125c.223.109.362.523.233.852-.361.05-.208-.466-.417-.501-.23-.039-.195.398-.334.518-.26-.035-.195-.35-.133-.534.077-.232.358-.478.65-.335zM9.17 3.942c.667-.089.604 1.482.034 1.452-.58-.03-.61-1.376-.034-1.452zm9.752 7.23c.398.82.69 1.753.618 2.856-.03.452-.145.947-.367 1.252-.113.154-.277.297-.451.3-.293.005-.502-.343-.651-.568-.178-.266-.313-.524-.451-.785-.18.186-.243.455-.334.685a5.481 5.481 0 0 1-1.186 1.853c.471.273.91.463 1.32.785.25.198.584.483.5.952-.055.313-.324.577-.518.701-1.345.869-4.155.741-5.81.2-.322-.105-.644-.274-.935-.317-.11-.016-.3-.008-.418-.017-.168-.01-.356-.043-.434-.033-.1.013-.185.115-.3.184-.73.43-1.443.675-2.539.751-1.217.085-2.445-.016-3.389-.317-.501-.16-1.171-.486-1.235-1.069-.032-.282.045-.705.15-.902.259-.49.844-.649 1.569-.718-.027-.125-.2-.206-.318-.3-.688-.562-1.227-1.32-1.569-2.255-.055-.15-.076-.32-.167-.467-.16.118-.18.335-.284.5-.21.335-.547.688-.885.852-.124.061-.31.134-.45.1-.275-.064-.338-.569-.368-.917-.114-1.297.262-2.343.684-3.156.54-1.04 1.31-1.714 2.088-2.355-.217-.6.04-1.272.317-1.637.01-.274.037-.526.133-.768.055-.133.176-.219.2-.334.027-.12-.01-.254 0-.4.124-1.626 1.125-3.095 2.021-3.99C5.996 1.304 6.47.926 7.217.584 7.895.275 8.757.095 9.689 0h1.218c2.987.282 4.885 1.608 5.778 3.991.137.366.237.738.334 1.136.096.393.084.873.217 1.285.08.25.288.472.4.735.229.532.305 1.283 0 1.803.451.633.898 1.42 1.287 2.222zm-1.253 7.28c.142-.767-.775-.615-1.369-.65.072-.252.423-.223.685-.284a1.552 1.552 0 0 0-1.12-.551c-1.14.995-2.472 1.8-4.358 2.053.543.453 1.729.638 2.89.684 1.14.046 2.366-.232 2.938-.717.153-.13.299-.34.334-.534zm-1.001-3.824c.415-1.566-.215-2.925-.852-3.857-1.887 1.281-4.934 2.277-7.832 1.52.017.309.048.65.05 1.018.003.365.074.776.017 1.085a.836.836 0 0 1-.45.568c-.29.118-.737.112-1.103.084-.662-.051-1.228-.37-1.402-.885-.067-.196-.053-.445-.068-.685-.045-.765.03-1.476.134-2.154a7.702 7.702 0 0 0-1.018-.601c-.544.546-.8 1.896-.768 2.839.008.239.06.581.116.851.155.74.568 1.427 1.019 1.954a6.27 6.27 0 0 0 1.62 1.352c1.278.758 3.045 1.136 4.743 1.153a5.1 5.1 0 0 0 1.77-.317c.567-.205 1.11-.518 1.603-.836.485-.312.993-.75 1.319-1.119.434-.492.9-1.207 1.102-1.97zm-2.505-6.462c.136-.063.664-.29.651-.468-.007-.09-.28-.252-.417-.333-1.419-.848-3.537-1.141-5.627-.836-.801.118-1.526.306-2.188.619-.21.098-.805.397-.785.617.008.086.142.19.217.234.325.191.852.303 1.22.384-.075-.204-.221-.335-.302-.534.752.52 1.63 1.083 2.788 1.186 1.737.152 3.055-.531 4.042-1.186-.094.237-.425.346-.485.551.384-.004.605-.104.886-.234zm-1.887-1.72c1.16-.416 1.197-3.126.017-3.573a1.098 1.098 0 0 0-.384-.033c-.382.046-.645.317-.802.584-.526.894-.346 2.739.651 3.039a.89.89 0 0 0 .518-.017zM8.554 6.43c.845.084 1.252-.97 1.235-1.804-.017-.86-.426-1.763-1.119-1.77-.426-.004-.727.29-.901.602-.517.924-.295 2.864.785 2.972zM6.349 19.804c1.137-.057 2.313-.222 2.738-.851-1.744-.207-3.312-.73-4.492-1.537-.148-.101-.395-.323-.517-.35-.026-.006-.083.016-.133.016-.402.007-.676.163-.986.351-.208.127-.463.321-.3.552.185-.01.298-.092.517-.068-.213.188-.585.334-.667.651-.071.275.192.507.35.618.787.557 2.146.687 3.49.618zm9.284-6.044c.015.19-.246.236-.35.117-.322.087-.746.003-.668-.417.067-.367.583-.712.835-.368.109.15.071.415.15.619-.079-.055-.135-.133-.234-.168-.352.105.152.562.267.217zm-.484-.267c.075-.023.084.065.134.017-.069-.593-.584.188-.2.216-.007-.106.002-.197.066-.233zm.05.067c-.086-.014-.063.081-.066.15.056-.016.034-.11.066-.15zm.1.15c-.07-.024.002-.111.067-.1-.006.049-.054.057-.066.1zm-.734.05c.009.18-.248.243-.351.117-.297.06-.665.035-.684-.284-.025-.394.505-.826.8-.551.112.103.159.296.134.535.022.04.043.08.067.117-.117 0-.133-.161-.25-.15-.224.019-.07.354.1.35.118-.003.091-.081.184-.134zm-.485-.267c.066-.013.087.061.134.017-.027-.113-.066-.213-.167-.25-.14.047-.297.485-.034.45-.022-.082-.001-.181.067-.217zm0 .217c.006-.052.085-.144.017-.167-.03.052-.084.135-.017.167z"/>
</svg>
