<svg xmlns="http://www.w3.org/2000/svg" width="28" height="28" viewBox="0 0 28 28">
    <path fill="#FFF" fill-rule="nonzero" d="M19.994 19.03c.064.052-.074.096-.07.164-.115-.048.031-.125.07-.164zm-3.18-13.255c.312.153.507.732.327 1.192-.507.071-.292-.651-.584-.701-.323-.054-.274.557-.468.725-.363-.048-.274-.489-.187-.748.109-.324.502-.669.912-.468zm-3.975-.257c.934-.124.846 2.075.047 2.033-.81-.04-.853-1.925-.047-2.033zM26.492 15.64c.557 1.149.967 2.454.865 3.999-.04.633-.203 1.326-.514 1.752-.158.216-.387.417-.631.421-.41.007-.702-.48-.912-.795-.249-.373-.437-.733-.631-1.099-.252.26-.34.637-.468.959-.399 1.006-.955 1.883-1.66 2.595.66.382 1.275.647 1.848 1.098.352.278.817.677.701 1.333-.077.438-.455.807-.725.981-1.884 1.216-5.818 1.038-8.135.281-.45-.147-.902-.384-1.31-.444-.154-.023-.42-.012-.584-.024-.236-.016-.499-.061-.607-.047-.14.02-.26.162-.421.257-1.021.604-2.02.947-3.554 1.052-1.704.12-3.423-.022-4.745-.444-.701-.223-1.64-.68-1.73-1.496-.044-.395.065-.987.21-1.262.363-.688 1.182-.909 2.198-1.005-.038-.176-.281-.289-.445-.422-.963-.786-1.718-1.846-2.197-3.155-.076-.21-.106-.448-.233-.655-.226.165-.252.47-.398.701-.294.468-.766.962-1.24 1.193-.173.084-.432.187-.63.14-.385-.09-.472-.797-.515-1.285-.16-1.815.368-3.28.958-4.419.755-1.454 1.833-2.399 2.923-3.296-.304-.84.056-1.78.444-2.291.014-.384.051-.738.186-1.076.077-.186.246-.306.281-.467.037-.168-.015-.356 0-.561.172-2.276 1.574-4.333 2.83-5.587.744-.745 1.405-1.274 2.453-1.754.949-.433 2.155-.685 3.46-.818h1.706c4.181.395 6.839 2.252 8.089 5.588.192.512.332 1.033.468 1.59.134.55.117 1.222.303 1.8.113.348.404.66.562 1.028.319.745.425 1.795 0 2.524.63.887 1.255 1.987 1.8 3.11zm-1.754 10.194c.199-1.075-1.085-.862-1.916-.912.1-.352.591-.312.958-.397a2.173 2.173 0 0 0-1.567-.772c-1.598 1.394-3.461 2.522-6.101 2.876.76.634 2.42.892 4.044.957 1.598.064 3.314-.325 4.115-1.005.213-.18.418-.475.467-.747zm-1.402-5.354c.582-2.193-.3-4.096-1.192-5.4-2.642 1.793-6.908 3.188-10.965 2.126.024.434.068.912.07 1.426.004.512.104 1.087.024 1.52-.062.34-.358.685-.63.795-.406.165-1.033.157-1.544.118-.927-.072-1.72-.519-1.964-1.24-.092-.273-.073-.622-.094-.959-.063-1.071.041-2.066.188-3.015-.453-.317-.93-.598-1.427-.842-.761.765-1.12 2.655-1.075 3.974.011.335.084.815.164 1.193.217 1.035.794 1.998 1.426 2.735a8.779 8.779 0 0 0 2.268 1.893c1.788 1.06 4.262 1.59 6.64 1.614a7.14 7.14 0 0 0 2.477-.444c.795-.286 1.555-.726 2.245-1.17a9.55 9.55 0 0 0 1.846-1.566c.61-.69 1.26-1.69 1.543-2.758zm-3.506-9.048c.19-.088.93-.406.911-.655-.01-.124-.393-.352-.584-.467-1.986-1.186-4.952-1.596-7.878-1.169-1.121.164-2.136.428-3.063.866-.293.138-1.127.556-1.099.864.011.12.2.266.304.328.456.267 1.192.424 1.707.538-.104-.287-.309-.47-.422-.748 1.053.729 2.281 1.516 3.904 1.66 2.431.213 4.276-.744 5.658-1.66-.132.331-.595.484-.679.771.538-.006.847-.146 1.24-.328zm-2.642-2.408c1.623-.581 1.675-4.377.023-5.002-.148-.056-.442-.059-.537-.047-.534.065-.903.444-1.123.819-.736 1.251-.484 3.834.912 4.254.261.079.553.038.725-.024zm-5.212-.023c1.182.118 1.752-1.357 1.729-2.524-.024-1.204-.596-2.47-1.566-2.478-.597-.006-1.019.404-1.263.842-.723 1.293-.413 4.01 1.1 4.16zM8.888 27.726c1.593-.08 3.24-.311 3.834-1.192-2.441-.29-4.637-1.022-6.289-2.151-.208-.142-.553-.452-.724-.49-.037-.01-.116.021-.186.022-.563.01-.946.228-1.38.492-.291.177-.648.45-.42.772.259-.014.417-.128.724-.095-.3.263-.82.467-.935.912-.1.384.27.71.491.865 1.102.78 3.004.96 4.885.865zm12.999-8.462c.02.266-.345.33-.491.164-.45.12-1.044.004-.936-.584.095-.514.817-.997 1.17-.515.152.21.1.58.21.866-.11-.077-.19-.185-.328-.234-.493.146.213.786.375.303zm-.679-.374c.106-.033.118.09.188.023-.096-.83-.817.264-.28.304-.01-.15.003-.276.092-.327zm.071.094c-.12-.019-.089.114-.093.21.08-.022.048-.154.093-.21zm.14.21c-.098-.033.002-.156.094-.141-.01.069-.076.08-.093.141zm-1.028.07c.013.251-.347.34-.492.164-.415.084-.93.049-.957-.397-.035-.552.706-1.157 1.121-.772.156.144.22.414.187.748.03.055.06.112.094.164-.164 0-.187-.225-.35-.21-.314.027-.099.496.14.49.164-.004.127-.113.257-.187zm-.678-.374c.09-.018.12.086.186.023-.037-.157-.092-.297-.233-.35-.197.067-.417.68-.047.631-.032-.114-.003-.254.094-.304zm0 .304c.008-.072.118-.202.023-.234-.043.072-.118.19-.023.234z"/>
</svg>
