<?xml version="1.0" encoding="UTF-8"?>
<svg width="141px" height="30px" viewBox="0 0 141 30" version="1.1" xmlns="http://www.w3.org/2000/svg" xmlns:xlink="http://www.w3.org/1999/xlink">
    <!-- Generator: Sketch 47.1 (45422) - http://www.bohemiancoding.com/sketch -->
    <title>Group 66</title>
    <desc>Created with Sketch.</desc>
    <defs></defs>
    <g id="old" stroke="none" stroke-width="1" fill="none" fill-rule="evenodd">
        <g id="588-index" transform="translate(-30.000000, -20.000000)">
            <g id="Group-66" transform="translate(30.000000, 20.000000)">
                <g id="Page-1" fill="#FF003C">
                    <path d="M11.4405108,27.571036 L10.3572734,27.571036 L10.2970576,28.0007482 C10.3572734,27.9923309 10.4090719,27.9923309 10.477705,27.9923309 C10.7438201,27.9923309 11.0148993,28.0521151 11.2125971,28.1941295 C11.4234604,28.3361439 11.5523094,28.5679424 11.5523094,28.8949209 C11.5523094,29.4150647 11.1053309,29.8749928 10.3529568,29.8749928 C10.0134604,29.8749928 9.72986331,29.7975108 9.57489928,29.7159281 L9.69101439,29.226 C9.81576259,29.286 10.0693597,29.363482 10.3229568,29.363482 C10.5936043,29.363482 10.8817338,29.2344173 10.8817338,28.9378705 C10.8817338,28.6499568 10.6538201,28.4736259 10.0950432,28.4736259 C9.94029496,28.4736259 9.83281295,28.482259 9.71691367,28.4995252 L9.90166187,27.0338417 L11.4405108,27.0338417 L11.4405108,27.571036 Z" id="Fill-11"></path>
                    <path d="M12.6267194,27.7516835 C12.6267194,27.9405324 12.798518,28.0611799 13.0221151,28.1295971 C13.1725468,28.0868633 13.3057122,27.9493813 13.3057122,27.7732662 C13.3057122,27.601036 13.2068633,27.4292374 12.9662158,27.4292374 C12.7426187,27.4292374 12.6267194,27.5755683 12.6267194,27.7516835 L12.6267194,27.7516835 Z M13.3616115,29.0753525 C13.3616115,28.8306043 13.1813957,28.6842734 12.9232662,28.6154245 C12.708518,28.6756403 12.5837698,28.8306043 12.5837698,29.0324029 C12.5792374,29.2344173 12.7342014,29.4236978 12.9793813,29.4236978 C13.2113957,29.4236978 13.3616115,29.2730504 13.3616115,29.0753525 L13.3616115,29.0753525 Z M12.4160719,28.3834101 C12.1454245,28.2459281 12.0120432,28.0177986 12.0120432,27.7732662 C12.0120432,27.3001727 12.4376547,26.9863597 12.9964317,26.9863597 C13.649741,26.9863597 13.9203885,27.364705 13.9203885,27.7042014 C13.9203885,27.9450647 13.7915396,28.1813957 13.5165755,28.3188777 L13.5165755,28.3318273 C13.7874388,28.4352086 14.0280863,28.6667914 14.0280863,29.0283022 C14.0280863,29.5354964 13.6024748,29.8749928 12.953482,29.8749928 C12.2444892,29.8749928 11.9177266,29.4750647 11.9177266,29.0967194 C11.9177266,28.7617554 12.1108921,28.5295252 12.4160719,28.3961439 L12.4160719,28.3834101 Z" id="Fill-13"></path>
                    <path d="M15.0126259,27.7516835 C15.0126259,27.9405324 15.1844245,28.0611799 15.4080216,28.1295971 C15.5584532,28.0868633 15.6916187,27.9493813 15.6916187,27.7732662 C15.6916187,27.601036 15.5927698,27.4292374 15.3521223,27.4292374 C15.1285252,27.4292374 15.0126259,27.5755683 15.0126259,27.7516835 L15.0126259,27.7516835 Z M15.747518,29.0753525 C15.747518,28.8306043 15.5673022,28.6842734 15.3091727,28.6154245 C15.0944245,28.6756403 14.9696763,28.8306043 14.9696763,29.0324029 C14.9651439,29.2344173 15.1201079,29.4236978 15.3652878,29.4236978 C15.5973022,29.4236978 15.747518,29.2730504 15.747518,29.0753525 L15.747518,29.0753525 Z M14.8019784,28.3834101 C14.5313309,28.2459281 14.3979496,28.0177986 14.3979496,27.7732662 C14.3979496,27.3001727 14.8235612,26.9863597 15.3821223,26.9863597 C16.0356475,26.9863597 16.306295,27.364705 16.306295,27.7042014 C16.306295,27.9450647 16.177446,28.1813957 15.902482,28.3188777 L15.902482,28.3318273 C16.1733453,28.4352086 16.4139928,28.6667914 16.4139928,29.0283022 C16.4139928,29.5354964 15.9883813,29.8749928 15.3393885,29.8749928 C14.6301799,29.8749928 14.3036331,29.4750647 14.3036331,29.0967194 C14.3036331,28.7617554 14.4967986,28.5295252 14.8019784,28.3961439 L14.8019784,28.3834101 Z" id="Fill-15"></path>
                    <path d="M20.1233525,29.6943237 C19.9213381,29.7631727 19.5386763,29.857705 19.1562302,29.857705 C18.6274532,29.857705 18.2450072,29.7245396 17.9784604,29.4666259 C17.7119137,29.2171295 17.5657986,28.839 17.5701151,28.4136043 C17.5744317,27.4505827 18.275223,26.9004388 19.2250791,26.9004388 C19.5988921,26.9004388 19.8870216,26.9733885 20.029036,27.0422374 L19.8913381,27.5666978 C19.7322734,27.4978489 19.5345755,27.4419496 19.2166619,27.4419496 C18.6706187,27.4419496 18.2579568,27.7516619 18.2579568,28.3790719 C18.2579568,28.976482 18.6319856,29.3289281 19.1691799,29.3289281 C19.3193957,29.3289281 19.4398273,29.3118777 19.4916259,29.2859784 L19.4916259,28.6799353 L19.0444317,28.6799353 L19.0444317,28.1686403 L20.1233525,28.1686403 L20.1233525,29.6943237 Z" id="Fill-17"></path>
                    <path d="M22.0449281,28.5939065 L21.8642806,27.9792302 C21.8129137,27.8074317 21.7613309,27.5922518 21.7183813,27.4204532 L21.7097482,27.4204532 C21.6665827,27.5922518 21.6236331,27.8115324 21.5765827,27.9792302 L21.4043525,28.5939065 L22.0449281,28.5939065 Z M21.310036,29.0840504 L21.103705,29.8277914 L20.4242806,29.8277914 L21.310036,26.9305252 L22.1696763,26.9305252 L23.0679496,29.8277914 L22.3630576,29.8277914 L22.1396763,29.0840504 L21.310036,29.0840504 Z" id="Fill-19"></path>
                    <path d="M25.9049353,28.7186763 C25.8917698,28.3703309 25.879036,27.9494676 25.879036,27.5279568 L25.8658705,27.5279568 C25.7756547,27.8974532 25.6554388,28.3103309 25.5434245,28.6500432 L25.1909784,29.7803309 L24.6796835,29.7803309 L24.3701871,28.662777 C24.2756547,28.3187482 24.1768058,27.9063022 24.1081727,27.5279568 L24.0995396,27.5279568 C24.0822734,27.919036 24.0691079,28.3662302 24.047741,28.7273094 L23.9961583,29.8278129 L23.3901151,29.8278129 L23.5748633,26.9305468 L24.4474532,26.9305468 L24.7312662,27.8974532 C24.821482,28.2285324 24.9116978,28.5939281 24.9762302,28.9334245 L24.9891799,28.9334245 C25.0707626,28.5982446 25.1696115,28.2155827 25.2643597,27.8935683 L25.5738561,26.9305468 L26.4291799,26.9305468 L26.5880288,29.8278129 L25.9476691,29.8278129 L25.9049353,28.7186763 Z" id="Fill-21"></path>
                    <polygon id="Fill-23" points="27.0910791 29.8277698 27.748705 29.8277698 27.748705 26.9305036 27.0910791 26.9305036"></polygon>
                    <path d="M28.3163525,29.8277482 L28.3163525,26.930482 L29.0816763,26.930482 L29.6834029,27.9923525 C29.8552014,28.2973165 30.0274317,28.6583957 30.1560647,28.9853741 L30.1690144,28.9853741 C30.1262806,28.6024964 30.1131151,28.2116331 30.1131151,27.7730719 L30.1131151,26.930482 L30.7148417,26.930482 L30.7148417,29.8277482 L30.0274317,29.8277482 L29.408223,28.7101942 C29.2364245,28.4006978 29.0473597,28.0266691 28.9053453,27.6871727 L28.8923957,27.6912734 C28.909446,28.0737194 28.918295,28.4822806 28.918295,28.9549424 L28.918295,29.8277482 L28.3163525,29.8277482 Z" id="Fill-25"></path>
                    <path d="M33.7021295,29.6943237 C33.5001151,29.7631727 33.1174532,29.857705 32.735223,29.857705 C32.2062302,29.857705 31.8237842,29.7245396 31.5572374,29.4666259 C31.2906906,29.2171295 31.1445755,28.839 31.1488921,28.4136043 C31.1532086,27.4505827 31.854,26.9004388 32.8038561,26.9004388 C33.1776691,26.9004388 33.4657986,26.9733885 33.6078129,27.0422374 L33.4701151,27.5666978 C33.3110504,27.4978489 33.1133525,27.4419496 32.7954388,27.4419496 C32.2493957,27.4419496 31.8367338,27.7516619 31.8367338,28.3790719 C31.8367338,28.976482 32.2107626,29.3289281 32.7479568,29.3289281 C32.8981727,29.3289281 33.0186043,29.3118777 33.0704029,29.2859784 L33.0704029,28.6799353 L32.6232086,28.6799353 L32.6232086,28.1686403 L33.7021295,28.1686403 L33.7021295,29.6943237 Z" id="Fill-26"></path>
                    <path d="M21.0239568,19.9597554 L23.9684892,16.9286763 C23.5018705,16.4204029 22.8686331,15.7299712 22.1620144,14.9598993 C22.1557554,14.9529928 22.1490647,14.9458705 22.1430216,14.938964 C22.0284173,14.8142158 21.9123022,14.6875252 21.7944604,14.5593237 C20.7684173,13.4409065 19.2308633,11.7650072 18.0047482,10.4283885 C17.9648201,10.385223 17.9253237,10.3418417 17.8864748,10.2995396 C17.6922302,10.0880288 17.5085612,9.88774101 17.3354676,9.69932374 L15.0453237,12.0570216 L13.9344604,13.2004748 L13.6428777,13.498964 L13.6407194,13.4972374 C13.5906475,13.5520576 13.537554,13.6045036 13.4823022,13.6541439 L13.4807914,13.6556547 C13.4268345,13.704 13.3705036,13.7495396 13.3120144,13.7922734 C13.3089928,13.7944317 13.3061871,13.7965899 13.3035971,13.7985324 C13.2479137,13.8391079 13.1902878,13.876446 13.1311511,13.9116259 C13.1244604,13.915295 13.1184173,13.9196115 13.1119424,13.9230647 C13.0564748,13.9554388 12.9990647,13.9843597 12.9407914,14.0117698 C12.9297842,14.0169496 12.9194245,14.0225612 12.9084173,14.0275252 C12.8538129,14.0519137 12.7979137,14.0732806 12.7411511,14.0931367 C12.7258273,14.0985324 12.7107194,14.1047914 12.694964,14.1099712 C12.6414388,14.1274532 12.5866187,14.1416978 12.5311511,14.1548633 C12.5121583,14.1598273 12.4933813,14.1656547 12.4739568,14.1697554 C12.418705,14.1818417 12.3623741,14.1898273 12.3056115,14.1973813 C12.2859712,14.1999712 12.2665468,14.2042878 12.2464748,14.206446 C12.1698561,14.2144317 12.0921583,14.2187482 12.0135971,14.2187482 C10.7976259,14.2187482 9.80827338,13.2296115 9.80827338,12.0138561 C9.80827338,10.7978849 10.7976259,9.80853237 12.0135971,9.80853237 C12.1079137,9.80853237 12.2005036,9.81630216 12.2917986,9.82817266 C12.3034532,9.82946763 12.3148921,9.8316259 12.3265468,9.83335252 C12.4143885,9.84608633 12.5007194,9.86378417 12.5848921,9.88623022 L12.5853237,9.88623022 L15.0008633,7.41500719 C14.1405755,6.85428777 13.1147482,6.52709353 12.0135971,6.52709353 C8.9881295,6.52709353 6.52683453,8.98838849 6.52683453,12.0138561 C6.52683453,15.0391079 8.9881295,17.5004029 12.0135971,17.5004029 C13.5306475,17.5004029 14.9056835,16.8814101 15.9,15.8832086 L15.9019424,15.8849353 L17.267482,14.479036 L19.4557554,16.8643597 L18.9297842,17.4060863 L18.9004317,17.3832086 C18.8046043,17.5060144 18.7053237,17.6247194 18.6041007,17.741482 L17.917554,18.4478849 C16.3182734,19.921554 14.232518,20.7462302 12.0135971,20.7462302 C7.19870504,20.7462302 3.28165468,16.8285324 3.28165468,12.0138561 C3.28165468,7.19896403 7.19870504,3.28148201 12.0135971,3.28148201 C13.9251799,3.28148201 15.762518,3.90673381 17.2631655,5.03615827 L19.5686331,2.67759712 C17.4461871,0.959395683 14.7878417,4.31654676e-05 12.0135971,4.31654676e-05 C5.38942446,4.31654676e-05 0,5.3892518 0,12.0138561 C0,18.6382446 5.38942446,24.0274532 12.0135971,24.0274532 C15.4964029,24.0274532 18.7407194,22.5535683 21.0239568,19.9597554" id="Fill-27"></path>
                    <path d="M22.2531583,4.06756835 L19.3088417,7.09886331 C19.7754604,7.60713669 20.4086978,8.29778417 21.1153165,9.06764029 C21.1213597,9.07433094 21.1282662,9.08166906 21.1343094,9.08857554 C21.2489137,9.21332374 21.3650288,9.33979856 21.4828705,9.46821583 C22.5089137,10.5866331 24.0464676,12.2625324 25.2725827,13.5989353 C25.312295,13.6421007 25.3517914,13.685482 25.3908561,13.728 C25.5848849,13.9390791 25.7687698,14.1395827 25.9416475,14.3282158 L28.2317914,11.9703022 L29.3426547,10.8268489 L29.6344532,10.5285755 L29.6366115,10.530518 C29.6866835,10.4752662 29.7395612,10.423036 29.7950288,10.3731799 C29.7954604,10.372964 29.7961079,10.3725324 29.7965396,10.3721007 C29.8504964,10.3237554 29.9068273,10.2777842 29.9653165,10.2352662 C29.9681223,10.2331079 29.9709281,10.2309496 29.973518,10.2290072 C30.0292014,10.1886475 30.0870432,10.1510935 30.1461799,10.1156978 C30.1526547,10.1122446 30.1589137,10.1081439 30.1653885,10.1044748 C30.2208561,10.0721007 30.2780504,10.0431799 30.3365396,10.0157698 C30.3473309,10.0105899 30.3579065,10.0051942 30.3689137,10.0000144 C30.4233022,9.97584173 30.4794173,9.95425899 30.5361799,9.93461871 C30.5517194,9.92900719 30.5666115,9.9227482 30.5821511,9.91756835 C30.6358921,9.90008633 30.6907122,9.88584173 30.745964,9.87246043 C30.7651727,9.86792806 30.7837338,9.86188489 30.8031583,9.85756835 C30.8584101,9.84591367 30.9149568,9.83771223 30.9715036,9.83015827 C30.9913597,9.82735252 31.0107842,9.8232518 31.0308561,9.82109353 C31.107259,9.81310791 31.1851727,9.80857554 31.2637338,9.80857554 C32.479705,9.80857554 33.4688417,10.7979281 33.4688417,12.0136835 C33.4688417,13.2296547 32.479705,14.2187914 31.2637338,14.2187914 C31.1692014,14.2187914 31.0768273,14.2112374 30.9855324,14.1993669 C30.9736619,14.1980719 30.9624388,14.1959137 30.9507842,14.1939712 C30.8629424,14.1814532 30.7763957,14.1637554 30.6924388,14.1415252 C30.692223,14.1415252 30.692223,14.1410935 30.6920072,14.1410935 L28.2762518,16.6125324 C29.1367554,17.1734676 30.1623669,17.500446 31.2637338,17.500446 C34.2892014,17.500446 36.7504964,15.0391511 36.7504964,12.0136835 C36.7504964,8.98843165 34.2892014,6.52713669 31.2637338,6.52713669 C29.7466835,6.52713669 28.3716475,7.14591367 27.3773309,8.14454676 L27.3753885,8.14260432 L26.0096331,9.5485036 L23.8215755,7.16317986 L24.3475468,6.62166906 L24.3768993,6.64433094 C24.4727266,6.52152518 24.5720072,6.40260432 24.6732302,6.28605755 L25.359777,5.57943885 C26.9592734,4.10598561 29.0448129,3.28130935 31.2637338,3.28130935 C36.0786259,3.28130935 39.9956763,7.19900719 39.9956763,12.0136835 C39.9956763,16.8285755 36.0786259,20.7460576 31.2637338,20.7460576 C29.3519353,20.7460576 27.5148129,20.1208058 26.0139496,18.9913813 L23.708482,21.3499424 C25.8311439,23.0681439 28.4892734,24.0272806 31.2637338,24.0272806 C37.8879065,24.0272806 43.2771151,18.6382878 43.2771151,12.0136835 C43.2771151,5.38929496 37.8879065,-0.000129496403 31.2637338,-0.000129496403 C27.7807122,-0.000129496403 24.5366115,1.47397122 22.2531583,4.06756835" id="Fill-28"></path>
                </g>
                <path d="M58.0156638,11.6092903 L59.5124041,11.6092903 C61.4716478,11.6092903 63.0110246,12.1820391 64.1301283,13.3281459 C65.249232,14.4740497 65.8087839,16.0495658 65.8087839,18.0538822 C65.8087839,20.1934169 65.215529,21.8269998 64.0290191,22.9550369 C62.8425093,24.083074 61.1346173,24.6470925 58.9055462,24.6470925 L53,24.6470925 L53,20.1706775 L58.5685157,20.1706775 C60.3750805,20.1706775 61.2785659,19.4651468 61.2785659,18.0538822 C61.2785659,17.4159606 61.0560445,16.9010755 60.6112048,16.5102419 C60.1663652,16.1192053 59.5796072,15.923687 58.8515401,15.923687 L53.4314397,15.923687 L53.4314397,5.33950749 L64.3122466,5.33950749 L64.3122466,9.49229195 L58.0156638,9.49229195 L58.0156638,11.6092903 Z M114.611777,7.57288285 L111.8731,7.57288285 L111.8731,8.98353829 L115.607439,8.98353829 L115.607439,8.40266823 C115.607439,7.85022242 115.275687,7.57288285 114.611777,7.57288285 Z M119.010026,7.57288285 L119.010026,11.390261 L108.470716,11.390261 L108.470716,7.65571927 C108.470716,5.99594548 109.410747,5.16616011 111.292027,5.16616011 L116.354388,5.16616011 C118.124204,5.11174795 119.010026,5.91290604 119.010026,7.57288285 Z M119.092862,12.137007 L119.092862,14.792848 L115.109608,14.792848 L115.109608,16.3691763 L119.34198,16.3691763 L119.34198,19.1910963 L114.694614,19.1910963 L114.27962,20.1867575 L117.184173,20.1867575 L119.424817,24.7510847 L115.939393,24.7510847 L114.113744,20.8506671 L112.205055,24.9171636 L108.470716,24.9171636 L111.043111,19.1910963 L107.723767,19.1910963 L107.723767,16.3691763 L111.707021,16.3691763 L111.707021,15.7885093 C111.707021,15.1245998 111.236396,14.792848 110.296163,14.792848 L108.055722,14.792848 L108.055722,12.137007 L119.092862,12.137007 Z M104.23814,16.0374246 L104.23814,10.8091879 L102.993564,10.8091879 L102.993564,16.0374246 L103.574434,17.4482831 L104.23814,16.0374246 Z M105.400084,20.5189153 L108.30484,24.8341241 L104.819214,24.8341241 L103.325519,22.5102378 C102.163576,23.5063051 100.890372,24.3360905 99.5079375,25 L99.5079375,21.7636949 C100.171847,21.377125 100.890372,20.7676276 101.665542,19.9378422 L100.005971,17.3650406 L100.005971,10.8091879 L99.3420616,10.8091879 L99.3420616,8.07071347 L100.005971,8.07071347 L100.005971,5.41507542 L102.993564,5.41507542 L102.993564,8.07071347 L104.23814,8.07071347 L104.23814,5.41507542 L107.225733,5.41507542 L107.225733,8.07071347 L107.806603,8.07071347 L107.806603,10.8091879 L107.225733,10.8091879 L107.225733,17.3650406 L105.400084,20.5189153 Z M135.109527,17.4482019 L137.51625,17.4482019 C138.400244,17.4482019 138.926905,17.83599 139.092781,18.610145 L140.254724,24.6681671 L136.603222,24.6681671 L135.109527,17.4482019 Z M136.852137,8.1536717 L124.404138,8.1536717 L124.404138,12.55192 C124.404138,12.8840777 124.570217,13.0499536 124.902172,13.0499536 L128.719347,13.0499536 L128.719347,10.0623608 L132.453889,10.0623608 L132.453889,13.0499536 L140.171685,13.0499536 L140.171685,16.2862587 L132.453889,16.2862587 L132.453889,24.9170824 L128.719347,24.9170824 L128.719347,18.2779872 C128.773962,16.9501682 128.165886,16.2862587 126.893697,16.2862587 L123.823268,16.2862587 C121.941988,16.1760132 121.001754,15.2631883 121.001754,13.5477842 L121.001754,7.65584108 C121.001754,5.9960673 121.885952,5.11166674 123.657392,5 L139.092781,5 L139.092781,6.16194316 C139.092781,7.48976219 138.345832,8.1536717 136.852137,8.1536717 L136.852137,8.1536717 Z M125.233924,17.5310383 L124.404138,24.5849246 L120.835675,24.5849246 L121.665461,17.5310383 L125.233924,17.5310383 Z M72.8739587,10.6248769 C72.8739587,11.1732621 73.069274,11.6317048 73.4603106,12.0002051 C73.8511442,12.3687053 74.3388233,12.5530569 74.9233479,12.5530569 C75.4983301,12.5530569 75.9860092,12.366472 76.3861822,11.993302 C76.7859491,11.6205382 76.9861371,11.1641257 76.9861371,10.6248769 C76.9861371,10.0677614 76.7906188,9.60505505 76.3995822,9.23614876 C76.0085456,8.86764852 75.5166028,8.68329689 74.9233479,8.68329689 C74.3298899,8.68329689 73.8399775,8.86764852 73.4536106,9.23614876 C73.0668376,9.60505505 72.8739587,10.0677614 72.8739587,10.6248769 M72.428916,18.3235879 C72.428916,19.0159216 72.6668677,19.5933402 73.1433801,20.0560466 C73.6196895,20.519159 74.2129444,20.7504106 74.9233479,20.7504106 C75.6242089,20.7504106 76.2174639,20.5169256 76.7029096,20.0495496 C77.1883554,19.5821735 77.4309768,19.0067853 77.4309768,18.3235879 C77.4309768,17.6495268 77.185919,17.0763719 76.6960066,16.6045292 C76.2060942,16.1326865 75.6152756,15.8967651 74.9233479,15.8967651 C74.2129444,15.8967651 73.6196895,16.1304531 73.1433801,16.5978292 C72.6668677,17.0654083 72.428916,17.6405935 72.428916,18.3235879 M70.8243665,14.1306034 C69.413102,12.9710966 68.7075712,11.6361715 68.7075712,10.1260311 C68.7075712,8.66116657 69.2961564,7.44278095 70.473936,6.47209245 C71.6515125,5.50140396 73.1344468,5.01595819 74.9233479,5.01595819 C76.7116399,5.01595819 78.1972136,5.50363729 79.3792568,6.47899549 C80.5610969,7.45435368 81.1523216,8.66989688 81.1523216,10.1260311 C81.1523216,11.6361715 80.4465878,12.9710966 79.0355263,14.1306034 C79.9339359,14.56184 80.6421061,15.202401 81.1590216,16.0516773 C81.675937,16.9011567 81.9343948,17.8608815 81.9343948,18.9304458 C81.9343948,20.6742742 81.2735307,22.1190388 79.9522087,23.2651456 C78.6308866,24.4110493 76.9546674,24.9842042 74.9233479,24.9842042 C72.855686,24.9842042 71.1770304,24.4159221 69.887381,23.2785456 C68.5975287,22.1417782 67.952501,20.6742742 67.952501,18.8764397 C67.952501,16.6022959 68.9097895,15.0202827 70.8243665,14.1306034 M88.4735989,10.6248769 C88.4735989,11.1732621 88.6689142,11.6317048 89.0599508,12.0002051 C89.4507844,12.3687053 89.9386665,12.5530569 90.5229881,12.5530569 C91.0981733,12.5530569 91.5856494,12.366472 91.9858224,11.993302 C92.3855893,11.6205382 92.5857773,11.1641257 92.5857773,10.6248769 C92.5857773,10.0677614 92.390259,9.60505505 91.9992224,9.23614876 C91.6081858,8.86764852 91.116243,8.68329689 90.5229881,8.68329689 C89.9295302,8.68329689 89.4396177,8.86764852 89.0532508,9.23614876 C88.6666809,9.60505505 88.4735989,10.0677614 88.4735989,10.6248769 M88.0285562,18.3235879 C88.0285562,19.0159216 88.2665079,19.5933402 88.7430203,20.0560466 C89.2195327,20.519159 89.8127877,20.7504106 90.5229881,20.7504106 C91.2240522,20.7504106 91.8173071,20.5169256 92.3025499,20.0495496 C92.7879956,19.5821735 93.030617,19.0067853 93.030617,18.3235879 C93.030617,17.6495268 92.7857623,17.0763719 92.2958499,16.6045292 C91.8057344,16.1326865 91.2149158,15.8967651 90.5229881,15.8967651 C89.8127877,15.8967651 89.2195327,16.1304531 88.7430203,16.5978292 C88.2665079,17.0654083 88.0285562,17.6405935 88.0285562,18.3235879 M86.4240067,14.1306034 C85.0127422,12.9710966 84.3072114,11.6361715 84.3072114,10.1260311 C84.3072114,8.66116657 84.8959997,7.44278095 86.0735762,6.47209245 C87.2511527,5.50140396 88.734087,5.01595819 90.5229881,5.01595819 C92.3112802,5.01595819 93.7968538,5.50363729 94.9791,6.47899549 C96.1607372,7.45435368 96.7519618,8.66989688 96.7519618,10.1260311 C96.7519618,11.6361715 96.046228,12.9710966 94.6351665,14.1306034 C95.5337792,14.56184 96.2417463,15.202401 96.7586618,16.0516773 C97.2755773,16.9011567 97.534035,17.8608815 97.534035,18.9304458 C97.534035,20.6742742 96.8731709,22.1190388 95.5518489,23.2651456 C94.2305268,24.4110493 92.5543076,24.9842042 90.5229881,24.9842042 C88.4553262,24.9842042 86.7768736,24.4159221 85.4870213,23.2785456 C84.1971689,22.1417782 83.5521413,20.6742742 83.5521413,18.8764397 C83.5521413,16.6022959 84.5094297,15.0202827 86.4240067,14.1306034" id="Fill-5" fill="#FFFFFF"></path>
            </g>
        </g>
    </g>
</svg>